<?xml version="1.0" standalone="no"?>
<!DOCTYPE svg PUBLIC "-//W3C//DTD SVG 20010904//EN"
 "http://www.w3.org/TR/2001/REC-SVG-20010904/DTD/svg10.dtd">
<svg version="1.0" xmlns="http://www.w3.org/2000/svg"
 width="1080.000000pt" height="1080.000000pt" viewBox="0 0 1080.000000 1080.000000"
 preserveAspectRatio="xMidYMid meet">
<metadata>
Created by potrace 1.14, written by Peter Selinger 2001-2017
</metadata>
<g transform="translate(0.000000,1080.000000) scale(0.100000,-0.100000)"
fill="#000000" stroke="none">
<path d="M3581 10779 c-219 -16 -491 -78 -698 -160 -218 -86 -478 -241 -663
-397 -365 -306 -641 -735 -766 -1191 -19 -69 -44 -180 -57 -246 l-22 -120 0
-3265 0 -3265 23 -120 c50 -266 121 -476 231 -693 236 -460 605 -824 1071
-1056 173 -86 299 -132 486 -179 299 -75 194 -72 2219 -72 2034 0 1921 -4
2232 75 966 246 1685 1073 1792 2062 8 66 11 907 11 2578 l0 2480 -530 0 -530
0 0 -2345 0 -2345 -2977 2 -2978 3 0 3005 0 3005 23 105 c32 143 65 236 128
360 182 357 514 610 922 702 95 21 112 22 1000 25 l902 4 0 530 0 529 -852 -1
c-469 -1 -905 -6 -967 -10z m2024 -8845 c33 -8 96 -33 140 -55 401 -197 551
-699 324 -1086 -48 -81 -189 -221 -274 -271 -117 -69 -210 -95 -355 -100 -149
-5 -259 17 -373 74 -90 45 -117 64 -196 139 -410 387 -267 1076 264 1275 137
51 333 61 470 24z"/>
<path d="M7645 10777 c-3 -7 -4 -127 -3 -267 l3 -255 268 -3 267 -2 0 -395 0
-395 -640 0 -640 0 0 660 0 660 -660 0 -660 0 0 -660 0 -660 660 0 660 0 0
-640 0 -640 640 0 640 0 0 -400 0 -400 400 0 400 0 0 400 0 400 225 0 225 0 0
225 0 225 -225 0 -225 0 0 -225 0 -225 -400 0 -400 0 0 640 0 640 400 0 400 0
0 395 0 395 223 2 222 3 0 225 0 225 -222 3 -223 2 0 -230 0 -230 -400 0 -400
0 0 270 0 270 -265 0 c-205 0 -267 -3 -270 -13z"/>
<path d="M5670 7734 c-201 -15 -407 -56 -585 -115 -526 -175 -886 -564 -969
-1049 -64 -372 58 -644 365 -809 115 -62 173 -81 696 -225 269 -74 510 -144
535 -155 58 -25 127 -86 145 -128 19 -47 16 -160 -7 -235 -51 -167 -178 -280
-375 -333 -79 -22 -280 -30 -372 -16 -183 28 -306 119 -345 254 -13 48 -16
182 -5 245 l7 42 -498 0 -498 0 -13 -77 c-53 -339 7 -597 180 -788 163 -177
448 -292 833 -335 127 -13 493 -14 622 0 674 73 1154 345 1386 785 108 207
153 384 153 610 -1 138 -3 156 -28 230 -79 224 -245 361 -569 470 -57 19 -283
84 -504 144 -221 61 -426 119 -456 131 -80 30 -143 74 -175 121 -26 40 -28 50
-28 143 0 91 3 107 29 161 18 36 55 86 95 126 111 111 241 159 433 159 148 0
223 -24 295 -96 69 -69 88 -130 80 -264 -3 -52 -8 -103 -12 -112 -7 -17 21
-18 497 -18 l504 0 13 63 c7 34 15 132 18 217 5 135 3 166 -16 244 -32 132
-79 215 -180 316 -67 66 -106 95 -176 131 -141 73 -293 117 -495 145 -104 14
-475 26 -580 18z"/>
</g>
</svg>
