<svg xmlns="http://www.w3.org/2000/svg" width="111.097" height="48" viewBox="0 0 111.097 48">
  <g id="Grupo_22" data-name="Grupo 22" transform="translate(-448 -479)">
    <g id="Grupo_24" data-name="Grupo 24" transform="translate(448 479)">
      <g id="Grupo_22-2" data-name="Grupo 22" transform="translate(0 21.218)">
        <path id="Caminho_584" data-name="Caminho 584" d="M607.529,298.3h7.547v.944h-7.547V298.3Zm0-6.04h7.547v.944h-7.547v-.944Zm0-6.266h7.547v.944h-7.547V286Zm0-6.182h7.547v.945h-7.547v-.945Zm0-6.022h7.547v.945h-7.547V273.8Z" transform="translate(-607.529 -273.083)" fill="#666" fill-rule="evenodd"/>
        <path id="Caminho_585" data-name="Caminho 585" d="M817.684,298.3h7.547v.944h-7.547V298.3Zm0-6.04h7.547v.944h-7.547v-.944Zm0-6.266h7.547v.944h-7.547V286Zm0-6.182h7.547v.945h-7.547v-.945Zm0-6.022h7.547v.945h-7.547V273.8Z" transform="translate(-714.134 -273.083)" fill="#666" fill-rule="evenodd"/>
        <path id="Caminho_586" data-name="Caminho 586" d="M607.529,298.3h7.547v.944h-7.547V298.3Zm0-6.04h7.547v.944h-7.547v-.944Zm0-6.266h7.547v.944h-7.547V286Zm0-6.182h7.547v.945h-7.547v-.945Zm0-6.022h7.547v.945h-7.547V273.8Z" transform="translate(-607.529 -273.083)" fill="#666" fill-rule="evenodd"/>
        <path id="Caminho_587" data-name="Caminho 587" d="M817.684,298.3h7.547v.944h-7.547V298.3Zm0-6.04h7.547v.944h-7.547v-.944Zm0-6.266h7.547v.944h-7.547V286Zm0-6.182h7.547v.945h-7.547v-.945Zm0-6.022h7.547v.945h-7.547V273.8Z" transform="translate(-714.134 -273.083)" fill="#666" fill-rule="evenodd"/>
        <path id="Caminho_588" data-name="Caminho 588" d="M660.987,280.432c1.738-6.2-3.305-8.082-8.612-8.082-5.375,0-11.072,1.673-12.65,7.761-.588,2.778.189,5.128,2.545,6.268,5.068,2.457,10.5,1.709,9.757,5.2-.363,1.708-2.643,2.564-4.286,2.564-2.562,0-4.059-1.319-3.513-3.738h-7.122c-1.376,6.978,3.526,8.729,9.509,8.729,5.946,0,11.833-2.57,12.984-7.982,1.472-6.943-4.7-7.371-8.777-8.475-1.781-.5-3.928-1.1-3.531-2.991.273-1.281,1.923-2.35,3.561-2.35a3.405,3.405,0,0,1,2.569.819,2.264,2.264,0,0,1,.446,2.279Zm20.6,18.16,1.065-4.985H670.188l1.155-5.449h11.465l1.057-4.984H672.4l1.129-5.306h12.46l1.062-4.985H667.468L662,298.592Zm28.859-18.16c1.741-6.2-3.3-8.082-8.608-8.082-5.378,0-11.074,1.673-12.652,7.761-.588,2.778.189,5.128,2.545,6.268,5.068,2.457,10.5,1.709,9.754,5.2-.361,1.708-2.638,2.564-4.285,2.564-2.562,0-4.059-1.319-3.511-3.738h-7.122c-1.376,6.978,3.524,8.729,9.507,8.729,5.947,0,11.834-2.57,12.986-7.982,1.47-6.943-4.7-7.371-8.777-8.475-1.779-.5-3.931-1.1-3.533-2.991.274-1.281,1.926-2.35,3.562-2.35a3.406,3.406,0,0,1,2.569.819,2.269,2.269,0,0,1,.444,2.279Zm8.068,18.16,5.464-25.709h-7.122l-5.463,25.709Z" transform="translate(-622.414 -272.35)" fill="#666" fill-rule="evenodd"/>
      </g>
      <g id="Grupo_23" data-name="Grupo 23" transform="translate(3.081 0)">
        <path id="Caminho_589" data-name="Caminho 589" d="M620.93,245.236a7.505,7.505,0,0,1-2.76-.507,6.484,6.484,0,0,1-2.276-1.5,7.036,7.036,0,0,1-1.545-2.465,9.461,9.461,0,0,1-.567-3.409,9.259,9.259,0,0,1,.59-3.409,7.713,7.713,0,0,1,1.581-2.536,6.651,6.651,0,0,1,2.312-1.581,7.255,7.255,0,0,1,2.784-.543,5.774,5.774,0,0,1,2.666.6,7.355,7.355,0,0,1,1.959,1.4l-1.84,2.217a5.934,5.934,0,0,0-1.239-.884,3.121,3.121,0,0,0-1.475-.342,3.3,3.3,0,0,0-1.474.342,3.5,3.5,0,0,0-1.2.979,4.852,4.852,0,0,0-.8,1.557,6.79,6.79,0,0,0-.295,2.076,5.909,5.909,0,0,0,1.014,3.692,3.257,3.257,0,0,0,2.713,1.309,3.414,3.414,0,0,0,1.687-.413,5.19,5.19,0,0,0,1.309-1.026l1.84,2.171A6.25,6.25,0,0,1,620.93,245.236Z" transform="translate(-613.782 -229.289)" fill="#666"/>
        <path id="Caminho_590" data-name="Caminho 590" d="M646.494,249.026a5.752,5.752,0,0,1-2.146-.413,5.429,5.429,0,0,1-1.829-1.191,5.712,5.712,0,0,1-1.262-1.923,7.441,7.441,0,0,1,0-5.214,5.717,5.717,0,0,1,1.262-1.923,5.445,5.445,0,0,1,1.829-1.191,5.761,5.761,0,0,1,2.146-.412,5.673,5.673,0,0,1,2.135.412,5.483,5.483,0,0,1,1.817,1.191,5.721,5.721,0,0,1,1.262,1.923,7.434,7.434,0,0,1,0,5.214,5.717,5.717,0,0,1-1.262,1.923,5.467,5.467,0,0,1-1.817,1.191A5.665,5.665,0,0,1,646.494,249.026Zm0-2.807a1.759,1.759,0,0,0,1.6-.9,5.709,5.709,0,0,0,0-4.86,1.894,1.894,0,0,0-3.22,0,5.829,5.829,0,0,0,0,4.86A1.752,1.752,0,0,0,646.494,246.218Z" transform="translate(-627.48 -233.078)" fill="#666"/>
        <path id="Caminho_591" data-name="Caminho 591" d="M668.362,248.743v-11.7h2.831l.236,1.487h.094a9.432,9.432,0,0,1,1.652-1.239,4.041,4.041,0,0,1,2.1-.531,3.125,3.125,0,0,1,2.772,1.25,6.047,6.047,0,0,1,.861,3.468v7.266H675.44v-6.818a3.169,3.169,0,0,0-.342-1.746,1.265,1.265,0,0,0-1.1-.472,2.088,2.088,0,0,0-1.132.3,6.641,6.641,0,0,0-1.038.837v7.9Z" transform="translate(-641.469 -233.078)" fill="#666"/>
        <path id="Caminho_592" data-name="Caminho 592" d="M699.9,249.026a6.509,6.509,0,0,1-2.336-.413,5.367,5.367,0,0,1-1.887-1.2,5.494,5.494,0,0,1-1.251-1.923,7.008,7.008,0,0,1-.448-2.6,6.651,6.651,0,0,1,.471-2.559,6.055,6.055,0,0,1,1.238-1.934,5.38,5.38,0,0,1,1.758-1.215,5.161,5.161,0,0,1,2.052-.424,5.222,5.222,0,0,1,2.182.424,4.316,4.316,0,0,1,1.558,1.18,5.017,5.017,0,0,1,.931,1.781,7.754,7.754,0,0,1,.307,2.229,8.244,8.244,0,0,1-.047.9c-.032.283-.063.5-.095.637h-7.007a2.865,2.865,0,0,0,1.05,1.875,3.258,3.258,0,0,0,1.994.6,4.812,4.812,0,0,0,2.524-.779l1.156,2.1a7.7,7.7,0,0,1-1.993.967A7.017,7.017,0,0,1,699.9,249.026Zm-2.595-7.407h4.222a2.66,2.66,0,0,0-.448-1.6,1.748,1.748,0,0,0-1.51-.613,2.147,2.147,0,0,0-1.451.543A2.722,2.722,0,0,0,697.3,241.618Z" transform="translate(-654.462 -233.078)" fill="#666"/>
        <path id="Caminho_593" data-name="Caminho 593" d="M724.172,249.026a6.162,6.162,0,0,1-2.276-.413,5.284,5.284,0,0,1-1.828-1.191,5.514,5.514,0,0,1-1.227-1.923,7.1,7.1,0,0,1-.448-2.607,6.506,6.506,0,0,1,.5-2.607,5.641,5.641,0,0,1,1.333-1.923,5.791,5.791,0,0,1,1.946-1.191,6.577,6.577,0,0,1,2.312-.412,4.9,4.9,0,0,1,1.922.354,6.051,6.051,0,0,1,1.5.9l-1.627,2.241a2.529,2.529,0,0,0-1.581-.684,2.449,2.449,0,0,0-2.005.9,4.374,4.374,0,0,0,.012,4.86,2.333,2.333,0,0,0,1.876.9,2.562,2.562,0,0,0,1.1-.248,5.63,5.63,0,0,0,1-.6l1.369,2.265a5.3,5.3,0,0,1-1.887,1.073A6.6,6.6,0,0,1,724.172,249.026Z" transform="translate(-666.848 -233.078)" fill="#666"/>
        <path id="Caminho_594" data-name="Caminho 594" d="M744.618,246.111a4.668,4.668,0,0,1-1.852-.33,3.233,3.233,0,0,1-1.25-.92,3.743,3.743,0,0,1-.708-1.427,7.16,7.16,0,0,1-.224-1.852V236.84h-1.6v-2.572l1.793-.141.4-3.114h2.878v3.114h2.808v2.713h-2.808v4.694a2.037,2.037,0,0,0,.413,1.427,1.438,1.438,0,0,0,1.1.436,2.467,2.467,0,0,0,.578-.07,3.867,3.867,0,0,0,.531-.165l.542,2.524q-.472.141-1.109.283A6.891,6.891,0,0,1,744.618,246.111Z" transform="translate(-677.29 -230.164)" fill="#666"/>
        <path id="Caminho_595" data-name="Caminho 595" d="M760.666,249.026a3.728,3.728,0,0,1-1.451-.271,3.1,3.1,0,0,1-1.1-.755,3.489,3.489,0,0,1-.7-1.12,3.809,3.809,0,0,1-.248-1.392,3.277,3.277,0,0,1,1.557-2.878,11.48,11.48,0,0,1,5.025-1.391,1.974,1.974,0,0,0-.46-1.239,1.779,1.779,0,0,0-1.38-.46,4.18,4.18,0,0,0-1.5.283,10.837,10.837,0,0,0-1.592.779l-1.25-2.289a12.266,12.266,0,0,1,2.371-1.109,8.06,8.06,0,0,1,2.63-.424,4.481,4.481,0,0,1,3.456,1.285,5.734,5.734,0,0,1,1.191,4v6.7h-2.831l-.236-1.2h-.095a7.479,7.479,0,0,1-1.581,1.073A4,4,0,0,1,760.666,249.026Zm1.179-2.689a1.911,1.911,0,0,0,1.015-.259,4.982,4.982,0,0,0,.9-.731v-2.052a6.272,6.272,0,0,0-2.548.755,1.424,1.424,0,0,0-.708,1.179.974.974,0,0,0,.366.838A1.6,1.6,0,0,0,761.845,246.336Z" transform="translate(-686.52 -233.078)" fill="#666"/>
      </g>
    </g>
  </g>
</svg>
