<svg xmlns="http://www.w3.org/2000/svg" width="152.565" height="106.001" viewBox="0 0 152.565 106.001">
  <g id="Grupo_41" data-name="Grupo 41" transform="translate(-37.732 -29.3)">
    <path id="Caminho_653" data-name="Caminho 653" d="M114.956,123.087c-2.109,0-4.218.022-6.326-.009a2.285,2.285,0,0,1-2.284-1.5,2.018,2.018,0,0,1,.475-2.237,2.793,2.793,0,0,1,2.222-.771c2.921.012,5.842-.043,8.76.03,1.019.025,1.15-.332.963-1.187a6.22,6.22,0,0,0-4.629-5.117,7.457,7.457,0,0,0-7.875,2.2,10.2,10.2,0,0,0-.257,12.69c2.725,3.256,8.173,3.969,12.132,1.584.346-.209.673-.45,1.015-.667a2.418,2.418,0,0,1,3.462.391,2.6,2.6,0,0,1-.6,3.575,13.66,13.66,0,0,1-6.569,2.959c-7.376,1.226-14.457-2.44-16.616-9.584a14.037,14.037,0,0,1,13.423-18.355,12.076,12.076,0,0,1,12.176,12.592c-.059,2.235-1.129,3.33-3.384,3.411-1.013.037-2.028.008-3.042.009h-3.042Z" fill="#666"/>
    <path id="Caminho_654" data-name="Caminho 654" d="M181.269,123.1c-2.428,0-4.416.022-6.4-.007-1.75-.026-2.724-.871-2.711-2.274.012-1.384,1.037-2.233,2.755-2.239,2.921-.011,5.842-.025,8.762.01.851.01,1.22-.055,1-1.12-1.07-5.247-7.247-7.266-11.682-3.788-4.271,3.35-4.736,12.952,2,15.728a9.994,9.994,0,0,0,9.012-.611c.213-.117.418-.247.621-.38,1.78-1.165,3.057-1.123,3.937.133.9,1.28.469,2.743-1.153,3.936-5.743,4.221-14.64,3.545-19.426-1.477a14.509,14.509,0,0,1-.653-18.927c5.193-6.509,15.644-6.677,20.487-.312a12.492,12.492,0,0,1,2.448,8.688,2.662,2.662,0,0,1-2.505,2.528C185.454,123.26,183.137,123.015,181.269,123.1Z" fill="#666"/>
    <path id="Caminho_655" data-name="Caminho 655" d="M85.2,123.1H79.965c-.284,0-.569.011-.852-.007-1.61-.1-2.608-1.025-2.544-2.355a2.341,2.341,0,0,1,2.62-2.153c2.921-.024,5.842-.007,8.764-.009,1.337,0,1.425-.119,1.11-1.468-1.028-4.4-5.984-6.452-10.3-4.265a7.624,7.624,0,0,0-3.194,3.077c-2.1,3.636-1.562,8.9,1.182,11.68a9.753,9.753,0,0,0,11.606,1.24c.456-.259.883-.571,1.335-.84a2.391,2.391,0,0,1,3.268.464,2.605,2.605,0,0,1-.305,3.332,11.876,11.876,0,0,1-4.131,2.494c-6.539,2.482-14.1.3-17.678-5.328a13.873,13.873,0,0,1-.389-14.9,12.932,12.932,0,0,1,12.509-6.93c7.564.283,11.846,5.861,11.814,12.792a2.82,2.82,0,0,1-2.894,3.093c-2.224.116-4.459.027-6.689.027Z" fill="#666"/>
    <path id="Caminho_656" data-name="Caminho 656" d="M58.487,118.575c1.258,0,2.516-.027,3.772.006a2.725,2.725,0,0,1,2.973,2.943c.03,1.5-.059,3-.059,4.5a6.96,6.96,0,0,1-2.707,5.341c-7.918,7.052-20.731,3.921-24.009-5.882a13.966,13.966,0,0,1,10.749-18.162c4.735-.85,9.019.064,12.622,3.425a4.5,4.5,0,0,1,1.132,1.561,2.534,2.534,0,0,1-.658,2.982,2.5,2.5,0,0,1-3.045.16,4.134,4.134,0,0,1-.833-.7c-3.02-3.348-8.176-3.029-10.859-1.42a9.261,9.261,0,0,0-3.8,10.322,8.594,8.594,0,0,0,8.359,6.53,9.955,9.955,0,0,0,4.934-1.058c1.767-.916,2.97-2.068,2.676-4.351-.213-1.653-.039-1.656-1.692-1.682a27.29,27.29,0,0,1-4.25-.112,2.183,2.183,0,0,1-1.8-1.615,1.962,1.962,0,0,1,.572-2.114,2.871,2.871,0,0,1,2.031-.674Q56.541,118.578,58.487,118.575Z" fill="#666"/>
    <path id="Caminho_657" data-name="Caminho 657" d="M150.589,109.534a2.962,2.962,0,0,1-1,2.137c-2.432,2.606-4.825,5.25-7.292,7.822-.625.652-.584,1-.007,1.652,2.764,3.123,5.47,6.3,8.188,9.462,1.164,1.354,1.157,2.839.01,3.866a2.57,2.57,0,0,1-3.855-.428q-5.214-5.931-10.359-11.925a2.479,2.479,0,0,1,.083-3.692c3.2-3.493,6.441-6.953,9.652-10.439a2.6,2.6,0,0,1,2.964-.808A2.414,2.414,0,0,1,150.589,109.534Z" fill="#666"/>
    <path id="Caminho_658" data-name="Caminho 658" d="M128.4,109.295a2.593,2.593,0,0,1,3.039-2.252,2.623,2.623,0,0,1,2.356,2.764q.027,11.254,0,22.509a2.721,2.721,0,0,1-5.4.565,1.592,1.592,0,0,0,.1-.83q0-10.963,0-21.925A1.626,1.626,0,0,0,128.4,109.295Z" fill="#666"/>
    <path id="Caminho_659" data-name="Caminho 659" d="M154.952,109.043a2.748,2.748,0,0,1,5.387,1.01q.01,11.078,0,22.154a2.673,2.673,0,0,1-2.208,2.9,2.727,2.727,0,0,1-3.175-1.975,1.913,1.913,0,0,0,.083-.836q0-11.208,0-22.414A1.885,1.885,0,0,0,154.952,109.043Z" fill="#666"/>
    <path id="Caminho_660" data-name="Caminho 660" d="M154.952,109.043c.3.253.2.6.2.91q.006,11.133,0,22.265c0,.313.092.657-.2.911-.027-1.5-.075-3-.077-4.5q-.014-9.007,0-18.014C154.877,110.094,154.926,109.569,154.952,109.043Z" fill="#666"/>
    <path id="Caminho_661" data-name="Caminho 661" d="M128.4,109.295c.347.332.21.762.21,1.151q.014,10.644,0,21.287c0,.387.142.819-.213,1.148q-.03-9.058-.057-18.118C128.34,112.94,128.381,111.117,128.4,109.295Z" fill="#666"/>
    <path id="Caminho_662" data-name="Caminho 662" d="M144.85,43.591c-9.019-9.77-20.491-13.951-33.555-14.288a43.893,43.893,0,0,0-11.336,1.315C90.23,33.1,82.131,37.992,76.584,46.6c-5.971,9.268-4.9,19.93,2.768,27.125,4.129,3.872,9.233,5.731,14.662,6.84,4.28.874,8.661,1.171,12.888,2.367,6.241,1.767,11.608,4.741,15.092,10.464a6.428,6.428,0,0,0,.744.959,3.876,3.876,0,0,0,5.624.626c2.589-1.813,5.169-3.639,7.778-5.421a108.11,108.11,0,0,0,10.054-7.241A20.447,20.447,0,0,0,153.782,66.9,31.872,31.872,0,0,0,144.85,43.591Zm-18.938,11.74q-6.5,7.8-13,15.615c-.934,1.122-1.884,2.23-2.8,3.364-.385.477-.789.874-1.431.56s-.561-.921-.428-1.489q1.344-5.734,2.7-11.465c.295-1.252.008-1.66-1.267-1.675-1.906-.021-3.814-.007-5.72,0a1.169,1.169,0,0,1-.977-2.074q7.755-9.292,15.49-18.6c.129-.156.265-.306.4-.459.385-.44.772-.879,1.436-.479.628.379.5.915.356,1.5-.745,3.108-1.465,6.222-2.195,9.333-.167.71-.354,1.416-.506,2.129-.258,1.213.088,1.641,1.359,1.666.933.019,1.866,0,2.8,0s1.867,0,2.8,0c.583,0,1.159.01,1.43.667C126.6,54.512,126.262,54.912,125.912,55.331Z" fill="#666"/>
  </g>
</svg>
