<svg xmlns="http://www.w3.org/2000/svg" width="80.018" height="106" viewBox="0 0 80.018 106">
  <g id="Grupo_42" data-name="Grupo 42" transform="translate(-296.76 -352.047)">
    <path id="Caminho_663" data-name="Caminho 663" d="M399.764,382.646a3.486,3.486,0,1,0,3.542,3.486A3.552,3.552,0,0,0,399.764,382.646Z" transform="translate(-43.564 -13.395)" fill="#666"/>
    <circle id="Elipse_7" data-name="Elipse 7" cx="3.486" cy="3.486" r="3.486" transform="matrix(0.973, -0.23, 0.23, 0.973, 334.745, 369.133)" fill="#666"/>
    <path id="Caminho_664" data-name="Caminho 664" d="M357.854,360.059c.787-.562,3.767-2.98,4.948-3.261s2.586-1.406,2.361-2.7c-.225-1.237-1.63-1.912-3.542-1.855-2.867.112-5.341,2.418-6.522,4.61a2.757,2.757,0,0,0-.112,2.924A2.3,2.3,0,0,0,357.854,360.059Z" transform="translate(-25.324 -0.085)" fill="#666"/>
    <path id="Caminho_665" data-name="Caminho 665" d="M401.216,356.432c1.124.394,3.88,3.092,4.554,3.711a2.448,2.448,0,0,0,2.868,0c.731-.618.618-1.912.225-2.867-.956-2.249-3.149-4.779-6.016-5.173-1.912-.225-3.374.225-3.711,1.462C398.8,354.745,400.091,356.038,401.216,356.432Z" transform="translate(-44.791)" fill="#666"/>
    <path id="Caminho_666" data-name="Caminho 666" d="M364.8,402.036l11.976-7.309-11.032-8.858c.012-.125.024-.241.035-.354a11.438,11.438,0,0,0,2-6.475h0a11.506,11.506,0,0,0-11.526-11.526,11.66,11.66,0,0,0-8.24,3.4,11.575,11.575,0,0,0-19.941,11.264,66.213,66.213,0,0,0-11.72.689c-1.528-3.205-4.546-5.182-7.272-4.5s-4.264,3.759-3.832,7.233c-2.309-1.6-5.015-2.01-6.794-.824-2.361,1.631-2.249,5.454.281,8.546a9.481,9.481,0,0,0,4.44,3.126,100.667,100.667,0,0,0,.564,23.3c.169-.394,5.622.675,11.189.9,1.616.071,3.218.1,4.658.1a.132.132,0,0,1,.008-.043,68.582,68.582,0,0,0,19.735-3.374c5.566-1.912,12.538-5.4,14.056-11.3a.927.927,0,1,1,1.8.45,12.357,12.357,0,0,1-2.4,4.652l.149-.1.45,8.49-8.827-2.305-3.036,7.815-8.04-4.1-4.723,6.859-6.149-5.4c-1,.065-1.954.1-2.826.114.9,10.7,2.888,29.556,4.25,41.849h36.627c-.1-1.763-.134-3.6-.134-5.47,0-6.855.559-17.047,1.317-27.717l8.241-5.512-6.016-7.478,9.165-6.747ZM304.791,390.88a1.722,1.722,0,0,1-.039.225c-.011.046-.025.091-.04.135a1.513,1.513,0,0,1-.13.286c-.012.02-.027.038-.04.058a1.394,1.394,0,0,1-.237.276,1.42,1.42,0,0,1-.3.189c-.029.014-.057.03-.087.043a3.114,3.114,0,0,1-3.213-1.132c-1.124-1.237-1.349-2.755-.506-3.486.9-.731,2.474-.281,3.6.9a3.929,3.929,0,0,1,.928,1.672,2.651,2.651,0,0,1,.074.495c0,.02,0,.04,0,.06A2.089,2.089,0,0,1,304.791,390.88Zm7.1-2.282c-1.124.506-2.586-.506-3.374-2.249-.071-.173-.123-.347-.175-.52-.486-1.624-.171-3.183.794-3.641.953-.5,2.263.252,3.094,1.7a5.605,5.605,0,0,1,.28.55C313.244,386.237,312.963,388.093,311.895,388.6Zm32.616-5.736a7.468,7.468,0,0,1-.522.547l-.061.055q-.245.228-.51.433l-.113.084q-.244.181-.5.343l-.159.1c-.162.1-.328.184-.5.268-.066.032-.132.065-.2.1-.162.074-.328.139-.5.2-.077.029-.154.059-.232.085-.165.055-.335.1-.5.143-.084.021-.166.046-.251.065-.179.039-.362.066-.544.091-.079.011-.156.028-.236.036a7.516,7.516,0,0,1-.8.044,7.411,7.411,0,0,1-.856-.053c-.086-.01-.169-.026-.254-.039-.2-.029-.392-.065-.584-.109-.089-.021-.178-.044-.265-.068q-.288-.079-.568-.18c-.072-.026-.145-.051-.216-.079a7.413,7.413,0,0,1-.693-.317l-.041-.02a7.44,7.44,0,0,1-1.4-.965l-.078-.07a7.489,7.489,0,0,1-.532-.528l-.067-.074a7.42,7.42,0,1,1,11.177-.086Zm17.523.837a7.494,7.494,0,0,1-1.131,1.127c-.029.023-.06.044-.089.066q-.258.2-.533.381c-.06.038-.121.074-.183.111-.158.1-.319.187-.485.271-.077.039-.155.076-.234.112-.156.073-.315.139-.478.2-.088.033-.175.066-.265.1-.161.055-.326.1-.493.145-.092.024-.183.05-.276.071-.178.039-.36.068-.544.094-.084.012-.166.029-.251.038a7.015,7.015,0,0,1-1.69-.009c-.088-.01-.174-.026-.26-.039-.2-.031-.4-.069-.6-.116-.091-.021-.18-.044-.269-.069q-.307-.086-.6-.2c-.065-.024-.132-.046-.2-.071a7.45,7.45,0,0,1-.769-.363l-.012-.007a7.473,7.473,0,0,1-.695-.44c-.052-.037-.1-.076-.153-.114-.179-.133-.352-.274-.518-.423-.047-.043-.1-.085-.141-.129a7.438,7.438,0,0,1-.525-.547c-.016-.019-.034-.035-.049-.054a7.476,7.476,0,0,1-.531-.707,7.422,7.422,0,1,1,11.97.57Z" transform="translate(0 -6.303)" fill="#666"/>
  </g>
</svg>
