<svg xmlns="http://www.w3.org/2000/svg" width="83.495" height="108.547" viewBox="0 0 83.495 108.547">
  <g id="Grupo_47" data-name="Grupo 47" transform="translate(-390.083 -277.839)">
    <path id="Caminho_686" data-name="Caminho 686" d="M414.331,298.331v-9.28l33.535,7.54V277.839l-55.247,12.423h-2.536v3.187l2.615.017Z" fill="#545454"/>
    <path id="Caminho_687" data-name="Caminho 687" d="M497.4,316.7,474.3,311.5l-32.071-7.211v7.779l32.071,7.211,1.464.329v6.362l21.712-4.881h2.536v-4.377Z" transform="translate(-26.439 -13.411)" fill="#545454"/>
    <path id="Caminho_688" data-name="Caminho 688" d="M390.083,435.99v3.919l1.723.012v-3.93Z" transform="translate(0 -80.177)" fill="#77b4c0"/>
    <rect id="Ret창ngulo_475" data-name="Ret창ngulo 475" width="1.723" height="60.899" transform="translate(390.083 294.913)" fill="#545454"/>
    <path id="Caminho_689" data-name="Caminho 689" d="M419.072,317.906l-22.525-5.065v64.782l21.061,4.735v-44.18l1.464-.329,32.071-7.212v-5.521Z" transform="translate(-3.277 -17.745)" fill="#545454"/>
    <rect id="Ret창ngulo_476" data-name="Ret창ngulo 476" width="1.723" height="59.709" transform="translate(471.855 309.146)" fill="#545454"/>
    <path id="Caminho_690" data-name="Caminho 690" d="M474.3,346.773l-32.071,7.211v64.782l54.6-12.277V341.709Z" transform="translate(-26.439 -32.38)" fill="#545454"/>
  </g>
</svg>
