<svg xmlns="http://www.w3.org/2000/svg" width="155.164" height="29.541" viewBox="0 0 155.164 29.541">
  <g id="Grupo_40" data-name="Grupo 40" transform="translate(-218.716 -406.682)">
    <g id="Grupo_36" data-name="Grupo 36">
      <path id="Caminho_634" data-name="Caminho 634" d="M274.112,434.5v-14.4h3.594v14.4Z" fill="#666"/>
      <path id="Caminho_635" data-name="Caminho 635" d="M291.834,433.363a5.018,5.018,0,0,1-3.511,1.3,4.384,4.384,0,0,1-3.6-1.52V434.5h-3.483V414.811h3.594v6.553a4.258,4.258,0,0,1,3.484-1.438,5.018,5.018,0,0,1,3.511,1.3c1.437,1.437,1.465,3.9,1.465,6.054S293.271,431.926,291.834,433.363Zm-4.562-10.2c-2.157,0-2.433,1.77-2.433,4.119s.276,4.148,2.433,4.148,2.433-1.8,2.433-4.148S289.429,423.161,287.272,423.161Z" fill="#666"/>
      <path id="Caminho_636" data-name="Caminho 636" d="M300.321,434.5a3.914,3.914,0,0,1-4.2-4.12V414.811h3.6v15.345c0,.858.359,1.3,1.271,1.3h1.383V434.5Z" fill="#666"/>
      <path id="Caminho_637" data-name="Caminho 637" d="M304.771,434.5v-14.4h3.594v14.4Z" fill="#666"/>
      <path id="Caminho_638" data-name="Caminho 638" d="M321.857,432.894a5.967,5.967,0,0,1-4.478,1.769,5.9,5.9,0,0,1-4.452-1.769c-1.3-1.355-1.631-2.987-1.631-5.614,0-2.6.332-4.229,1.631-5.584a5.9,5.9,0,0,1,4.452-1.77,5.964,5.964,0,0,1,4.478,1.77c1.3,1.355,1.632,2.986,1.632,5.584C323.489,429.907,323.157,431.539,321.857,432.894Zm-2.792-9.1a2.27,2.27,0,0,0-1.686-.636,2.207,2.207,0,0,0-1.659.636c-.747.746-.829,1.991-.829,3.483s.082,2.766.829,3.512a2.207,2.207,0,0,0,1.659.636,2.27,2.27,0,0,0,1.686-.636c.747-.746.83-2.019.83-3.512S319.812,424.543,319.065,423.8Z" fill="#666"/>
      <path id="Caminho_639" data-name="Caminho 639" d="M330.953,434.5a3.906,3.906,0,0,1-4.175-4.12v-7.133h-1.521v-2.737h1.521v-4.258h3.594v4.258h2.544v2.737h-2.544v6.912c0,.829.388,1.3,1.244,1.3h1.3V434.5Z" fill="#666"/>
      <path id="Caminho_640" data-name="Caminho 640" d="M338.44,428.414a2.975,2.975,0,0,0,3.152,3.207,3.983,3.983,0,0,0,3.262-1.354l2.185,2.129a6.863,6.863,0,0,1-5.475,2.267c-3.4,0-6.663-1.549-6.663-7.383,0-4.7,2.543-7.354,6.277-7.354,4.009,0,6.276,2.93,6.276,6.885v1.6Zm5.143-4.009a2.685,2.685,0,0,0-4.812,0,4,4,0,0,0-.331,1.548h5.475A3.982,3.982,0,0,0,343.583,424.4Z" fill="#666"/>
      <path id="Caminho_641" data-name="Caminho 641" d="M356.023,434.663c-2.875,0-6.441-1.549-6.441-7.383s3.566-7.354,6.441-7.354a6.133,6.133,0,0,1,4.756,1.935l-2.432,2.434a2.91,2.91,0,0,0-2.324-1.134,2.49,2.49,0,0,0-2.045.941,4.875,4.875,0,0,0-.8,3.178,4.969,4.969,0,0,0,.8,3.208,2.492,2.492,0,0,0,2.045.94,2.909,2.909,0,0,0,2.324-1.133l2.432,2.4A6.155,6.155,0,0,1,356.023,434.663Z" fill="#666"/>
      <path id="Caminho_642" data-name="Caminho 642" d="M370.368,434.5v-1.244a4.377,4.377,0,0,1-3.539,1.383,4.91,4.91,0,0,1-3.677-1.273,4.614,4.614,0,0,1-1.189-3.234c0-2.295,1.576-4.176,4.922-4.176h3.4v-.719c0-1.576-.773-2.266-2.681-2.266a3.091,3.091,0,0,0-2.765,1.188l-2.295-2.239c1.41-1.548,2.792-1.991,5.2-1.991,4.036,0,6.138,1.714,6.138,5.088V434.5Zm-.083-6.083h-2.848c-1.3,0-2.018.608-2.018,1.632,0,.995.664,1.658,2.074,1.658a2.853,2.853,0,0,0,2.267-.69,2.372,2.372,0,0,0,.525-1.826Z" fill="#666"/>
    </g>
    <g id="Grupo_37" data-name="Grupo 37">
      <path id="Caminho_643" data-name="Caminho 643" d="M339.633,416.521a2.888,2.888,0,0,1-2.472-.916l1.285-1.092a1.946,1.946,0,0,0,1.465.487c.672,0,1.033-.224,1.1-.624a.512.512,0,0,0-.065-.409.637.637,0,0,0-.425-.185l-.818-.117a1.93,1.93,0,0,1-1.286-.615,1.7,1.7,0,0,1-.232-1.394,2.769,2.769,0,0,1,2.922-2.194,2.615,2.615,0,0,1,2.194.829l-1.262,1.072a1.5,1.5,0,0,0-1.244-.409.877.877,0,0,0-.951.644.393.393,0,0,0,.079.321.64.64,0,0,0,.442.2l.817.117a1.93,1.93,0,0,1,1.264.575,1.788,1.788,0,0,1,.248,1.521A2.89,2.89,0,0,1,339.633,416.521Z" fill="#666"/>
      <path id="Caminho_644" data-name="Caminho 644" d="M343.281,416.463l1.224-6.942h4.719l-.269,1.521h-3.012l-.2,1.16h2.574l-.268,1.521H345.47l-.215,1.219h3.013L348,416.463Z" fill="#666"/>
      <path id="Caminho_645" data-name="Caminho 645" d="M351.014,416.521a2.888,2.888,0,0,1-2.471-.916l1.285-1.092a1.944,1.944,0,0,0,1.464.487c.673,0,1.034-.224,1.105-.624a.512.512,0,0,0-.065-.409.637.637,0,0,0-.425-.185l-.818-.117a1.93,1.93,0,0,1-1.286-.615,1.694,1.694,0,0,1-.232-1.394,2.769,2.769,0,0,1,2.922-2.194,2.617,2.617,0,0,1,2.194.829l-1.262,1.072a1.5,1.5,0,0,0-1.244-.409.879.879,0,0,0-.952.644.4.4,0,0,0,.08.321.64.64,0,0,0,.442.2l.817.117a1.932,1.932,0,0,1,1.264.575,1.788,1.788,0,0,1,.248,1.521A2.891,2.891,0,0,1,351.014,416.521Z" fill="#666"/>
      <path id="Caminho_646" data-name="Caminho 646" d="M354.662,416.463l1.225-6.942h1.706l-1.224,6.942Z" fill="#666"/>
      <path id="Caminho_647" data-name="Caminho 647" d="M357.758,414.337l.265-1.5h3.2l-.265,1.5Z" fill="#666"/>
      <path id="Caminho_648" data-name="Caminho 648" d="M363.566,416.521a2.888,2.888,0,0,1-2.471-.916l1.284-1.092a1.948,1.948,0,0,0,1.465.487c.673,0,1.034-.224,1.1-.624a.508.508,0,0,0-.064-.409.64.64,0,0,0-.426-.185l-.818-.117a1.93,1.93,0,0,1-1.285-.615,1.694,1.694,0,0,1-.233-1.394,2.77,2.77,0,0,1,2.922-2.194,2.618,2.618,0,0,1,2.2.829l-1.262,1.072a1.5,1.5,0,0,0-1.245-.409.877.877,0,0,0-.951.644.4.4,0,0,0,.08.321.64.64,0,0,0,.442.2l.817.117a1.935,1.935,0,0,1,1.264.575,1.791,1.791,0,0,1,.248,1.521A2.891,2.891,0,0,1,363.566,416.521Z" fill="#666"/>
      <path id="Caminho_649" data-name="Caminho 649" d="M370.4,413.986h-1.043l-.437,2.477h-1.706l1.224-6.942h2.749a1.82,1.82,0,0,1,1.977,2.232A2.749,2.749,0,0,1,370.4,413.986Zm.44-2.935h-.965l-.248,1.4h.966a.871.871,0,0,0,.864-.7A.576.576,0,0,0,370.84,411.051Z" fill="#666"/>
    </g>
    <g id="Grupo_38" data-name="Grupo 38">
      <path id="Caminho_650" data-name="Caminho 650" d="M263.691,434.738H251.949V406.682h11.269c5.478,0,8.67,3.074,8.67,7.881a6.489,6.489,0,0,1-3.467,5.793,6.516,6.516,0,0,1,3.861,6.3C272.282,431.9,268.7,434.738,263.691,434.738Zm-.906-23.17h-5.36v6.462h5.36c2.325,0,3.626-1.3,3.626-3.231S265.11,411.568,262.785,411.568Zm.355,11.389h-5.715v6.895h5.715a3.322,3.322,0,0,0,3.665-3.467C266.8,424.493,265.622,422.957,263.14,422.957Z" fill="#666"/>
    </g>
    <g id="Grupo_39" data-name="Grupo 39">
      <path id="Caminho_651" data-name="Caminho 651" d="M223.415,426.379c-.433,2.456.754,4.252,3.428,4.252a6.282,6.282,0,0,0,4.642-1.8l2.4,2.822a10.82,10.82,0,0,1-7.787,3.006c-4.508,0-8.471-2.053-7.107-9.787,1.1-6.231,5.09-9.748,10.039-9.748,5.314,0,7.635,3.884,6.711,9.125l-.375,2.126Zm7.755-5.314a2.684,2.684,0,0,0-2.84-1.979,4.093,4.093,0,0,0-3.539,1.979,6.068,6.068,0,0,0-.8,2.052h7.257A4.967,4.967,0,0,0,231.17,421.065Z" fill="#666"/>
    </g>
    <path id="Caminho_652" data-name="Caminho 652" d="M247.451,436.223a5.254,5.254,0,0,1-5.248-5.248V406.73h1.5v24.245a3.748,3.748,0,0,0,7.5,0V406.73h1.5v24.245A5.255,5.255,0,0,1,247.451,436.223Z" fill="#666"/>
    <rect id="Ret창ngulo_473" data-name="Ret창ngulo 473" width="1.295" height="25.603" transform="translate(245.439 406.73)" fill="#666"/>
    <rect id="Ret창ngulo_474" data-name="Ret창ngulo 474" width="1.295" height="25.603" transform="translate(248.37 406.73)" fill="#666"/>
    <circle id="Elipse_4" data-name="Elipse 4" cx="2.785" cy="2.785" r="2.785" transform="translate(235.937 428.556)" fill="#666"/>
    <circle id="Elipse_5" data-name="Elipse 5" cx="2.366" cy="2.366" r="2.366" transform="translate(273.543 414.799)" fill="#666"/>
    <circle id="Elipse_6" data-name="Elipse 6" cx="2.366" cy="2.366" r="2.366" transform="translate(304.202 414.799)" fill="#666"/>
  </g>
</svg>
