<svg xmlns="http://www.w3.org/2000/svg" width="110" height="64.043" viewBox="0 0 110 64.043">
  <g id="Grupo_25" data-name="Grupo 25" transform="translate(-427.158 -74.364)">
    <path id="Caminho_596" data-name="Caminho 596" d="M434.624,120.98c.006-.25.015-.475.015-.7q0-4.973,0-9.946c0-.171,0-.342.015-.511a.292.292,0,0,1,.3-.285,3.93,3.93,0,0,1,.4-.012c2.294,0,4.587,0,6.88,0a11.531,11.531,0,0,1,5.428,1.248,10.6,10.6,0,0,1,5.712,7.639,11.163,11.163,0,0,1,.222,2.088c0,.149.019.3.03.467a5.358,5.358,0,0,0,1.3.062c.436.013.872.009,1.308.005a13.152,13.152,0,0,0,1.329-.026c.018-.171.045-.315.046-.46,0-.777,0-1.554,0-2.331q0-4.036,0-8.071c0-.17,0-.341.016-.51a.3.3,0,0,1,.589,0,4.659,4.659,0,0,1,.016.51q0,5.059,0,10.117c0,.225.007.45.012.693a1.508,1.508,0,0,0,.3.066q1.706.006,3.412,0a1.284,1.284,0,0,0,.21-.032c.144-.181.091-.377.094-.56a11.224,11.224,0,0,1,1.037-4.623,10.918,10.918,0,0,1,7.537-6.292,11.094,11.094,0,0,1,11.532,4.094,2.9,2.9,0,0,1,.246.379.333.333,0,0,1-.048.37.322.322,0,0,1-.415-.027,3.707,3.707,0,0,1-.281-.356,10.233,10.233,0,0,0-3.353-2.934,10.38,10.38,0,0,0-6.422-1.2,10.579,10.579,0,0,0-8.943,8.313,11.937,11.937,0,0,0-.274,2.366,4.336,4.336,0,0,0,.04.48c.208.01.391.027.576.028q2.161,0,4.322,0l15.864,0c.19,0,.38-.005.568.012.3.027.411.135.393.437a10.4,10.4,0,0,1-.135,1.3,11.166,11.166,0,0,1-5.859,8.144,10.832,10.832,0,0,1-5.3,1.259,11.141,11.141,0,0,1-10.742-8.666c-.1-.442-.16-.894-.241-1.34-.03-.164-.066-.327-.1-.478a29.16,29.16,0,0,0-3.973,0,2.418,2.418,0,0,0-.054.362c0,.682,0,1.364,0,2.046q0,3.609-.005,7.218c0,.095,0,.19,0,.284-.016.269-.114.405-.293.414s-.3-.137-.317-.389c-.008-.151,0-.3,0-.455q0-4.4,0-8.81a1.535,1.535,0,0,0-.065-.686c-.11-.016-.22-.042-.33-.047-.993-.041-3.152-.013-3.578.044-.147.126-.125.306-.144.472a10.826,10.826,0,0,1-1.269,4.038,10.644,10.644,0,0,1-6.809,5.277,13.147,13.147,0,0,1-3.433.41c-2.2.008-4.4,0-6.6,0a3.174,3.174,0,0,1-.453-.025.3.3,0,0,1-.282-.3c-.013-.17-.01-.341-.01-.511q0-4.32,0-8.64c0-.225-.007-.45-.01-.649a.823.823,0,0,0-.582-.115c-.91,0-1.82,0-2.73,0a4.765,4.765,0,0,1-1.294-.149,3.9,3.9,0,0,1-2.819-3.36c-.02-.283-.04-.567-.04-.85q-.005-9.549-.006-19.1a4.782,4.782,0,0,1,.232-1.679,3.931,3.931,0,0,1,3.694-2.63c1,.005,2.01,0,3.014,0,.186,0,.373-.013.543-.019a.787.787,0,0,0,.1-.572c0-1.288,0-2.576,0-3.865A7.871,7.871,0,0,1,435.1,87a7.055,7.055,0,0,1,.447-1.1,4.931,4.931,0,0,1,3.26-2.624,6.76,6.76,0,0,1,3.918.123,4.912,4.912,0,0,1,2.669,2.1,7.14,7.14,0,0,1,1.059,3.495,1.087,1.087,0,0,1-.029.195,1.848,1.848,0,0,1-.874.074,2.271,2.271,0,0,1-.863-.059c-.053-.318-.091-.635-.162-.945a8.237,8.237,0,0,0-.3-1.092,3.551,3.551,0,0,0-3.222-2.4,4.66,4.66,0,0,0-1.47.084,3.412,3.412,0,0,0-2.3,1.7,4.814,4.814,0,0,0-.559,1.719,9.928,9.928,0,0,0-.1,1.3c-.013,1.25-.006,2.5,0,3.751,0,.149.018.3.03.478a3.323,3.323,0,0,0,.333.059c.132.01.265,0,.4,0h11.486c.224,0,.447-.012.654-.018a.864.864,0,0,0,.1-.582c0-1.023-.005-2.046,0-3.069a9.559,9.559,0,0,1,.52-3.294,6.785,6.785,0,0,1,.648-1.324,5.375,5.375,0,0,1,4.07-2.5,7.329,7.329,0,0,1,2.874.194,5.291,5.291,0,0,1,3.182,2.409,7.346,7.346,0,0,1,1.03,3.218c.052.565.065,1.135.073,1.7.012.871,0,1.743,0,2.614,0,.188.01.375.016.582a2.155,2.155,0,0,0,.351.062q1.734.007,3.469,0a2.322,2.322,0,0,0,.261-.027.949.949,0,0,0,.084-.579c0-1.251,0-2.5,0-3.751q0-2.7,0-5.4c0-.205.011-.41.017-.6a6.6,6.6,0,0,1,1.926-.062c.076.144.17.3.247.471q2.128,4.586,4.252,9.175c.119.255.244.507.366.761h3.125a2.344,2.344,0,0,0,.07-.327c.012-.17,0-.341,0-.511q0-4.461,0-8.923a1.639,1.639,0,0,1,.055-.638,14.456,14.456,0,0,1,1.727-.029.772.772,0,0,1,.105.575c0,1.364,0,2.728,0,4.093v5.7a1.322,1.322,0,0,0,.292.077q2.1.006,4.208,0a1.406,1.406,0,0,0,.216-.036.953.953,0,0,0,.076-.565c0-1.231,0-2.463,0-3.694q0-2.729,0-5.457c0-.206.007-.411.01-.591a.693.693,0,0,1,.524-.1q4.151-.005,8.3,0h1.082a1.7,1.7,0,0,1,.095.853c.009.261-.009.523-.015.785a1.177,1.177,0,0,1-.64.09q-2.615,0-5.231,0c-.531,0-1.061,0-1.592,0-.187,0-.374.016-.534.023-.167.171-.117.351-.118.514,0,1.136,0,2.273,0,3.41q0,1.734,0,3.467c0,.185.018.369.027.55a1.384,1.384,0,0,0,.65.067q3.156.005,6.312.005c.186,0,.373.012.584.019a7.357,7.357,0,0,1,.033,1.574c-.161.166-.342.114-.5.115-1.137.005-2.275,0-3.412,0-1.023,0-2.047,0-3.07,0a.936.936,0,0,0-.576.086,2.965,2.965,0,0,0-.043.313c-.059,1.787-.023,7.413.05,7.9.18.145.4.085.6.086q3.383.007,6.766,0h.961a1.749,1.749,0,0,1,.094.864,2.64,2.64,0,0,1-.03.754.667.667,0,0,1-.072.062.13.13,0,0,1-.052.016c-.094.006-.189.016-.284.016q-4.833,0-9.667-.005a.915.915,0,0,1-.163-.029c-.131-.15-.083-.327-.084-.491,0-1.364,0-2.728,0-4.093V94.557a1.559,1.559,0,0,0-.34-.086q-2.075-.007-4.151,0a1.676,1.676,0,0,0-.255.043,3.058,3.058,0,0,0-.049.379c0,.682,0,1.364,0,2.046q0,3.7,0,7.389v.574a2.2,2.2,0,0,1-.965.086c-.319.014-.64,0-.986-.005q-2.451-5.246-4.87-10.46a3.918,3.918,0,0,0-1.041-.058c-.36-.009-.721-.011-1.08,0a2.964,2.964,0,0,0-1.025.072,9.568,9.568,0,0,0-.04,1.471c-.009.493,0,.986,0,1.478s0,.986,0,1.478V100.5q0,.739,0,1.478c0,.493,0,.985,0,1.478s.018.978-.017,1.456a6.175,6.175,0,0,1-1.806.044,1.667,1.667,0,0,1-.061-.307c-.006-.53,0-1.061,0-1.591q0-3.95,0-7.9c0-.205-.01-.411-.016-.619a1.23,1.23,0,0,0-.255-.063q-1.819-.005-3.639,0a.809.809,0,0,0-.2.052,1.071,1.071,0,0,0-.072.574c0,1.023.006,2.046,0,3.069a10.663,10.663,0,0,1-.3,2.647,6.759,6.759,0,0,1-.995,2.216,5.439,5.439,0,0,1-3.78,2.286,7.2,7.2,0,0,1-2.711-.09,5.4,5.4,0,0,1-3.74-2.886,7.422,7.422,0,0,1-.8-2.824c-.051-.566-.065-1.135-.072-1.7-.01-.909,0-1.819,0-2.728a.929.929,0,0,0-.083-.57,1.422,1.422,0,0,0-.262-.045q-6.226,0-12.452.013a.632.632,0,0,0-.185.076c-.009.158-.026.324-.027.491,0,1.251-.005,2.5.005,3.751a6.763,6.763,0,0,0,.28,2.075,5.715,5.715,0,0,0,.366.891,3.455,3.455,0,0,0,2.815,1.865,5.068,5.068,0,0,0,1.7-.075,3.492,3.492,0,0,0,2.35-1.732,5.9,5.9,0,0,0,.679-1.978c.036-.2.074-.407.11-.6a4.3,4.3,0,0,1,1.762.007,2.3,2.3,0,0,1-.078.888,6.984,6.984,0,0,1-.726,2.261,5.157,5.157,0,0,1-3.387,2.734,6.906,6.906,0,0,1-3.65-.027,5.128,5.128,0,0,1-3.4-2.954,7.494,7.494,0,0,1-.63-3.095c-.009-1.288,0-2.577,0-3.865v-.649a2.23,2.23,0,0,0-.4-.079c-1.081-.006-2.161-.013-3.241,0a3.335,3.335,0,0,0-3.33,3.212c-.007.132,0,.266,0,.4q0,9.663-.005,19.325a4.423,4.423,0,0,0,.119,1.183,3.325,3.325,0,0,0,3.025,2.438c1.154.035,2.311.007,3.467,0A1.656,1.656,0,0,0,434.624,120.98Zm.775-10.9c-.2.2-.132.424-.132.622q-.01,4.856-.008,9.713a2.09,2.09,0,0,0,0,.284c.015.106.048.209.08.34H448.66c1.231,0,2.462,0,3.694-.006a.874.874,0,0,0,.583-.1c.008-.146.023-.312.023-.478a9.833,9.833,0,0,0-.382-2.747,10,10,0,0,0-6.486-7,11.235,11.235,0,0,0-3.9-.635c-2.1.007-4.205,0-6.307,0Zm27.84,11.563a1.438,1.438,0,0,0-.267.05,9.123,9.123,0,0,0,.973,3.881,10.5,10.5,0,0,0,15.02,4.532,10.8,10.8,0,0,0,4.023-4.523,8.727,8.727,0,0,0,.969-3.871.442.442,0,0,0-.147-.058m-48.536.05c-.006.224-.015.43-.015.636q0,3.038,0,6.077c0,.814,0,1.628,0,2.442a4.194,4.194,0,0,0,.052.453c.2.013.369.033.536.033,2.084,0,4.167.01,6.25,0a13.234,13.234,0,0,0,2.706-.283,10.224,10.224,0,0,0,8.1-9.056,1.353,1.353,0,0,0-.032-.306C452.353,121.613,435.859,121.613,435.274,121.7ZM451.506,94.51c-.009.231-.023.4-.023.568,0,1.079,0,2.158.01,3.237,0,.378.02.758.061,1.134a5.823,5.823,0,0,0,.557,2.013,3.561,3.561,0,0,0,2.481,1.986,5.459,5.459,0,0,0,1.636.1,3.649,3.649,0,0,0,3.336-2.419,5.386,5.386,0,0,0,.427-1.93c.032-1.457.039-2.914.05-4.371a1.432,1.432,0,0,0-.061-.307c-.555-.088-5.523-.122-8.033-.058C451.82,94.469,451.692,94.491,451.506,94.51Zm8.5-.69c.011-.206.028-.391.029-.577,0-.606.008-1.212,0-1.817-.009-.757-.016-1.514-.05-2.27a5.654,5.654,0,0,0-.465-1.98,3.6,3.6,0,0,0-2.678-2.228,5.313,5.313,0,0,0-1.526-.085,3.648,3.648,0,0,0-3.35,2.4,5.3,5.3,0,0,0-.426,1.873c-.034,1.475-.035,2.952-.046,4.428a1.049,1.049,0,0,0,.061.255C452.036,93.877,459.372,93.884,460.01,93.821Zm13.267.726c.1.228.182.417.267.6.58,1.271,1.166,2.539,1.738,3.813.294.654.56,1.321.846,1.978.039.09.049.237.221.206a.743.743,0,0,0,.029-.163q-.114-3.17-.234-6.34a.343.343,0,0,0-.043-.1A12.241,12.241,0,0,0,473.277,94.547Zm-5.364-7.432c0,.246,0,.358,0,.469q.065,2.973.132,5.947a2.073,2.073,0,0,0,.034.257,13.463,13.463,0,0,0,2.72.019c.006-.036.028-.079.015-.107-.95-2.1-1.877-4.2-2.71-6.352A1.587,1.587,0,0,0,467.912,87.115Z" transform="translate(0 -3.613)" fill="#666"/>
    <path id="Caminho_597" data-name="Caminho 597" d="M604.841,94.214v4.263a9.112,9.112,0,0,1-.459,2.9,6.314,6.314,0,0,1-.679,1.434,5.446,5.446,0,0,1-4.063,2.514,7.285,7.285,0,0,1-2.542-.1,5.4,5.4,0,0,1-3.78-2.917,6.994,6.994,0,0,1-.726-2.32,13.16,13.16,0,0,1-.125-1.7c-.012-2.728,0-5.457,0-8.185a9.214,9.214,0,0,1,.454-3.02,7.6,7.6,0,0,1,.493-1.145,5.271,5.271,0,0,1,3.479-2.712,7.109,7.109,0,0,1,3.653.036A5.308,5.308,0,0,1,603.938,86a7.959,7.959,0,0,1,.892,3.607c.027,1.06.01,2.121.011,3.182q0,.711,0,1.421Zm-1.908.013c0-1.362.01-2.726-.006-4.087a13.194,13.194,0,0,0-.118-1.582,4.949,4.949,0,0,0-.664-1.917,3.554,3.554,0,0,0-2.271-1.666,5.169,5.169,0,0,0-1.918-.094,3.615,3.615,0,0,0-2.995,2.146,5.44,5.44,0,0,0-.261.689,7.578,7.578,0,0,0-.326,2.3c0,2.781,0,5.563.008,8.345a10.7,10.7,0,0,0,.118,1.469,5.086,5.086,0,0,0,.657,1.92,3.538,3.538,0,0,0,2.256,1.683,5.381,5.381,0,0,0,1.861.106,3.586,3.586,0,0,0,3.014-2.024,5.453,5.453,0,0,0,.316-.788,7.333,7.333,0,0,0,.329-2.293Q602.931,96.327,602.934,94.227Z" transform="translate(-69.015 -3.61)" fill="#666"/>
    <path id="Caminho_598" data-name="Caminho 598" d="M579.853,105.263c-.645.011-1.266.019-1.927-.009-.051-.158-.11-.312-.151-.472q-.515-2.037-1.027-4.074c-.037-.145-.089-.286-.133-.43a1.306,1.306,0,0,0-.239-.049q-3.212,0-6.424,0a.843.843,0,0,0-.194.058c-.258.795-.421,1.629-.638,2.449s-.414,1.649-.617,2.461a7.352,7.352,0,0,1-1.94.034.371.371,0,0,1-.022-.046.112.112,0,0,1-.009-.056q2.765-10.544,5.533-21.089a1.746,1.746,0,0,1,.069-.216.7.7,0,0,1,.1-.126c.626-.011,1.285-.01,1.935,0a.859.859,0,0,1,.1.169q2.78,10.571,5.556,21.142A2.132,2.132,0,0,1,579.853,105.263Zm-3.69-6.82c-.9-4.024-2.068-7.958-2.864-11.98a.412.412,0,0,0-.085-.142c-.009-.012-.035-.012-.063-.02a.74.74,0,0,0-.061.144c-.383,2.066-.935,4.091-1.437,6.129-.448,1.817-.9,3.633-1.355,5.45-.035.14-.1.285-.011.424.425.067,4.564.107,5.566.054A2.619,2.619,0,0,0,576.163,98.443Z" transform="translate(-58.188 -3.893)" fill="#666"/>
    <path id="Caminho_599" data-name="Caminho 599" d="M553.968,83.683c.674,0,1.328-.027,1.987.021a.862.862,0,0,1-.17.556q-1.351,2.848-2.708,5.692-.843,1.769-1.688,3.536c-.089.187-.17.377-.258.574,1.72,3.717,3.461,7.41,5.186,11.189-.745.016-1.4.016-2.078,0-.358-.791-.709-1.563-1.057-2.338s-.694-1.556-1.04-2.334c-.338-.761-.673-1.524-1.015-2.283s-.672-1.558-1.065-2.347a1.231,1.231,0,0,0-.332.555q-1.379,3.085-2.75,6.173c-.378.847-.762,1.691-1.147,2.543a4.866,4.866,0,0,1-1.022.04c-.321.008-.642,0-.97,0-.068-.234.068-.389.143-.549q1.547-3.352,3.1-6.7.79-1.7,1.583-3.4c.08-.172.155-.345.249-.556-.083-.186-.172-.392-.268-.594q-2.161-4.538-4.32-9.076a2.082,2.082,0,0,1-.255-.621,5.982,5.982,0,0,1,1.966-.069,1.259,1.259,0,0,1,.3.531q1.649,3.617,3.292,7.236c.109.239.229.472.377.775.107-.185.189-.3.248-.432q1.578-3.462,3.151-6.925C553.591,84.492,553.776,84.1,553.968,83.683Z" transform="translate(-48.707 -3.883)" fill="#666"/>
    <path id="Caminho_600" data-name="Caminho 600" d="M574.706,143.533c-.3-.008-.527-.02-.751-.02l-7.278,0c-.17,0-.341,0-.511-.01a.282.282,0,0,1-.284-.291.257.257,0,0,1,.269-.236c.17-.012.341-.011.511-.011l7.278,0c.224,0,.448-.012.7-.019.023-.137.05-.243.058-.349.009-.132,0-.266,0-.4V129.491c-.219-.07-.269.09-.344.179q-1.43,1.693-2.851,3.4l-7.45,8.887q-3.56,4.247-7.123,8.493a4.044,4.044,0,0,1-.388.412.22.22,0,0,1-.309-.011.232.232,0,0,1-.067-.306,3.806,3.806,0,0,1,.34-.453q2.536-3.029,5.076-6.056,6.415-7.64,12.834-15.278a3.3,3.3,0,0,1,.384-.415.3.3,0,0,1,.508.205,3.578,3.578,0,0,1,.012.454q0,10.6,0,21.2a4.2,4.2,0,0,1-.015.454.311.311,0,0,1-.265.258.306.306,0,0,1-.32-.261,4.25,4.25,0,0,1-.018-.511q0-2.955,0-5.911Z" transform="translate(-53.851 -22.501)" fill="#666"/>
    <path id="Caminho_601" data-name="Caminho 601" d="M597.981,150.139a1.529,1.529,0,0,0,.736.091q4.177,0,8.354,0c.189,0,.379,0,.567.02a.228.228,0,0,1,.22.219.223.223,0,0,1-.182.252,3.437,3.437,0,0,1-.563.044q-2.785,0-5.57,0c-1.156,0-2.311,0-3.466,0-.7,0-.722-.024-.722-.745q0-8.379,0-16.758,0-2.159,0-4.317a3.56,3.56,0,0,1,.019-.453.31.31,0,0,1,.285-.236.3.3,0,0,1,.289.229,3.614,3.614,0,0,1,.029.509q0,2.726,0,5.453,0,7.526-.005,15.053C597.969,149.708,597.977,149.914,597.981,150.139Z" transform="translate(-71.056 -22.501)" fill="#666"/>
    <path id="Caminho_602" data-name="Caminho 602" d="M545.808,129.1c-.259-.007-.465-.017-.67-.017q-2.644,0-5.288-.006a3.144,3.144,0,0,1-.508-.033.234.234,0,0,1-.2-.243.225.225,0,0,1,.2-.238,3.1,3.1,0,0,1,.4-.023l7.562,0q2.559,0,5.117,0a4.642,4.642,0,0,1,.51.024.217.217,0,0,1,.2.235.231.231,0,0,1-.184.252,2.837,2.837,0,0,1-.507.036q-2.673,0-5.345,0c-.188,0-.375.008-.528.012a.616.616,0,0,0-.128.52q-.008,1.876-.006,3.751,0,8.468,0,16.937a4.634,4.634,0,0,1-.021.51.272.272,0,0,1-.29.216.253.253,0,0,1-.244-.2,2.769,2.769,0,0,1-.028-.451q0-3.78,0-7.559,0-6.564,0-13.129C545.837,129.513,545.821,129.346,545.808,129.1Z" transform="translate(-46.755 -22.613)" fill="#666"/>
    <path id="Caminho_603" data-name="Caminho 603" d="M588.1,177.366a9.646,9.646,0,0,1,1.309,0c.151.127.1.288.112.433.01.189.01.379.02.567a.257.257,0,0,0,.194.25.3.3,0,0,0,.34-.141,1.136,1.136,0,0,0-.186-1.162,5.236,5.236,0,0,0-.5-.371q-.349-.246-.7-.482a1.524,1.524,0,0,1-.668-1.139,3.053,3.053,0,0,1,.051-1.072,1.081,1.081,0,0,1,.648-.809,2.574,2.574,0,0,1,2.2.049.945.945,0,0,1,.562.8,2.151,2.151,0,0,1,0,.828,2.958,2.958,0,0,1-1.389.013c-.014-.135-.027-.28-.044-.425a.982.982,0,0,0-.047-.277c-.026-.061-.1-.138-.157-.14a.328.328,0,0,0-.244.093.819.819,0,0,0,.114.991,3.859,3.859,0,0,0,.419.29c.281.192.567.379.843.578a1.53,1.53,0,0,1,.645,1.149,4.886,4.886,0,0,1-.01,1.188,1.018,1.018,0,0,1-.56.806,2.432,2.432,0,0,1-2.292.025,1.091,1.091,0,0,1-.618-.773A3.5,3.5,0,0,1,588.1,177.366Z" transform="translate(-67.15 -41.27)" fill="#666"/>
    <path id="Caminho_604" data-name="Caminho 604" d="M602.94,177.414a3.463,3.463,0,0,1,1.4,0c.009.175.018.36.028.545.008.151.009.3.029.453a.235.235,0,0,0,.234.207.276.276,0,0,0,.286-.144,1.128,1.128,0,0,0-.179-1.161,6.258,6.258,0,0,0-.548-.4c-.262-.187-.529-.366-.787-.559a1.316,1.316,0,0,1-.481-.75,2.808,2.808,0,0,1,.019-1.46,1.03,1.03,0,0,1,.618-.7,2.555,2.555,0,0,1,2.247.071.872.872,0,0,1,.482.6,2.548,2.548,0,0,1,.034,1.032,4.12,4.12,0,0,1-1.382.009c-.018-.121-.037-.228-.05-.336a1.776,1.776,0,0,0-.051-.39.315.315,0,0,0-.21-.149.237.237,0,0,0-.189.092.825.825,0,0,0,.111.992,4.008,4.008,0,0,0,.418.292c.311.216.628.423.93.65a1.422,1.422,0,0,1,.554,1.018,4.667,4.667,0,0,1,0,1.245,1.022,1.022,0,0,1-.557.807,2.439,2.439,0,0,1-2.292.03,1.074,1.074,0,0,1-.6-.717A3.175,3.175,0,0,1,602.94,177.414Z" transform="translate(-73.344 -41.271)" fill="#666"/>
    <path id="Caminho_605" data-name="Caminho 605" d="M578.972,175.105a3.13,3.13,0,0,1-1.443.024c-.012-.133-.022-.279-.039-.424a.715.715,0,0,0-.058-.273.318.318,0,0,0-.209-.154.309.309,0,0,0-.226.136.837.837,0,0,0,.139.944,3.714,3.714,0,0,0,.416.294c.281.192.564.381.843.576a1.524,1.524,0,0,1,.664,1.2,7.748,7.748,0,0,1,0,1.02,1.112,1.112,0,0,1-.716,1.007,2.5,2.5,0,0,1-1.987.033,1.227,1.227,0,0,1-.817-1,4.383,4.383,0,0,1-.045-1.075,1.76,1.76,0,0,1,.69-.061c.224,0,.448.008.672.013a1.188,1.188,0,0,1,.08.576,4.391,4.391,0,0,0,.058.5.232.232,0,0,0,.252.185.278.278,0,0,0,.271-.168,1.1,1.1,0,0,0-.251-1.194c-.144-.121-.306-.223-.461-.331-.248-.174-.5-.342-.745-.519a1.4,1.4,0,0,1-.606-1.106,6.446,6.446,0,0,1,.013-.906,1.124,1.124,0,0,1,.789-1.016,2.67,2.67,0,0,1,1.993.054,1.01,1.01,0,0,1,.661.853C578.943,174.554,578.952,174.818,578.972,175.105Z" transform="translate(-61.911 -41.272)" fill="#666"/>
    <path id="Caminho_606" data-name="Caminho 606" d="M611.576,179.594a4.881,4.881,0,0,1-1.507,0,10.561,10.561,0,0,1-.026-1.194c-.005-.417,0-.833,0-1.249,0-.4,0-.8,0-1.193,0-.416,0-.833,0-1.249a9.9,9.9,0,0,1,.03-1.21c.137-.014.245-.033.354-.034.511,0,1.023-.011,1.534.005a3.409,3.409,0,0,1,.726.107.94.94,0,0,1,.751.827,6.309,6.309,0,0,1,.019,1.811.893.893,0,0,1-.878.875c-.224.034-.453.04-.679.064a1.794,1.794,0,0,0-.223.055,5.927,5.927,0,0,0-.052,1.194A7.217,7.217,0,0,1,611.576,179.594Zm.081-5.029a5.441,5.441,0,0,0,.019,1.466c.229.085.382.022.439-.166a2.255,2.255,0,0,0,.016-1.111C612.1,174.577,611.983,174.541,611.657,174.565Z" transform="translate(-76.352 -41.371)" fill="#666"/>
    <path id="Caminho_607" data-name="Caminho 607" d="M532.758,139.573q0-5.285,0-10.57a4.375,4.375,0,0,1,.012-.454.3.3,0,0,1,.6-.006,3.331,3.331,0,0,1,.013.4q0,5.6,0,11.2,0,5,0,10a4.67,4.67,0,0,1-.015.511.305.305,0,0,1-.318.263.309.309,0,0,1-.266-.257,4.978,4.978,0,0,1-.016-.511q0-4.46,0-8.922v-1.648Z" transform="translate(-44.088 -22.501)" fill="#666"/>
    <path id="Caminho_608" data-name="Caminho 608" d="M585.255,174.658l-.956.047a2.7,2.7,0,0,0-.043,1.136l.883.054a1.967,1.967,0,0,1,.064,1.05c-.285.19-.611.028-.917.151a4.474,4.474,0,0,0-.047,1.258c.375.172.751.016,1.126.151a5.439,5.439,0,0,1,.019,1.065,4.614,4.614,0,0,1-1.37.072,5.377,5.377,0,0,1-1.3-.048.622.622,0,0,1-.055-.169q-.01-2.84-.012-5.679a1.023,1.023,0,0,1,.039-.207,11.2,11.2,0,0,1,2.572,0A4.566,4.566,0,0,1,585.255,174.658Z" transform="translate(-64.918 -41.374)" fill="#666"/>
    <path id="Caminho_609" data-name="Caminho 609" d="M577.44,74.486h1.381a2.265,2.265,0,0,1-1.17,2.178,2,2,0,0,1-1.757-.038c-.253-.123-.482-.3-.726-.442a2.867,2.867,0,0,0-.5-.267.526.526,0,0,0-.732.332c-.059.136-.1.282-.143.416a3.627,3.627,0,0,1-1.6-.011,2.409,2.409,0,0,1,.767-1.814,1.96,1.96,0,0,1,2.079-.316,4.58,4.58,0,0,1,.7.374c.164.095.311.218.476.309a.677.677,0,0,0,1.089-.375c.022-.052.037-.107.058-.16S577.405,74.568,577.44,74.486Z" transform="translate(-60.553)" fill="#666"/>
    <path id="Caminho_610" data-name="Caminho 610" d="M596.749,179.559a3.668,3.668,0,0,1-1.506.01,18.263,18.263,0,0,1-.037-2.007c-.012-.661-.006-1.323-.006-1.984,0-.677,0-1.355,0-2.054a5.972,5.972,0,0,1,1.473-.057c.168.172.111.371.112.552,0,1.3,0,2.607,0,3.911,0,.415,0,.831,0,1.247C596.779,179.307,596.76,179.437,596.749,179.559Z" transform="translate(-70.156 -41.368)" fill="#666"/>
    <path id="Caminho_611" data-name="Caminho 611" d="M598.852,179.878a1.662,1.662,0,0,1-.041-.959,6.354,6.354,0,0,1,1.9-.02,1.92,1.92,0,0,1,.023.947C600.093,179.915,599.476,179.871,598.852,179.878Z" transform="translate(-71.644 -43.618)" fill="#666"/>
  </g>
</svg>
