<svg xmlns="http://www.w3.org/2000/svg" width="146.006" height="47.122" viewBox="0 0 146.006 47.122">
  <path id="Caminho_675" data-name="Caminho 675" d="M146.007,6.864V0H0V6.864H9.918V8.105H0V14.78H9.918v1.242H0V22.9H9.918v1.24H0v7H9.918v1.24H0v6.7H9.918v1.24H0v6.8H146.007v-6.8h-9.916v-1.24h9.916v-6.7h-9.916v-1.24h9.916v-7h-9.916V22.9h9.916V16.021h-9.916V14.78h9.916V8.105h-9.916V6.864ZM47.457,16.55H38.1a2.976,2.976,0,0,0-.587-2.994,4.474,4.474,0,0,0-3.376-1.077c-2.153,0-4.322,1.4-4.679,3.089-.522,2.48,2.3,3.275,4.641,3.931,5.358,1.45,13.47,2.013,11.535,11.138-1.513,7.113-9.249,10.491-17.065,10.491-7.863,0-14.3-2.3-12.5-11.472h9.361c-.718,3.18,1.25,4.912,4.616,4.912,2.161,0,5.157-1.125,5.634-3.37.974-4.586-6.162-3.6-12.823-6.832-3.1-1.5-4.119-4.586-3.346-8.237,2.075-8,9.562-10.2,16.627-10.2C43.112,5.928,49.741,8.406,47.457,16.55Zm30.068,3.6-1.39,6.551H61.066l-1.518,7.161H75.927l-1.4,6.551H48.79L55.975,6.629H81.712l-1.4,6.553H63.94l-1.484,6.972Zm34.93-3.6H103.1a2.979,2.979,0,0,0-.583-2.994,4.476,4.476,0,0,0-3.376-1.077c-2.151,0-4.322,1.4-4.683,3.089-.522,2.48,2.306,3.275,4.643,3.931,5.354,1.45,13.468,2.013,11.536,11.138-1.513,7.113-9.251,10.491-17.067,10.491-7.863,0-14.3-2.3-12.5-11.472h9.361c-.718,3.18,1.248,4.912,4.616,4.912,2.163,0,5.157-1.125,5.63-3.37.977-4.586-6.159-3.6-12.82-6.832-3.1-1.5-4.118-4.586-3.345-8.237,2.075-8,9.56-10.2,16.628-10.2C108.115,5.928,114.744,8.406,112.455,16.55Zm10.6,23.868H113.7l7.181-33.788h9.361Z" transform="translate(-0.001)" fill="#666" fill-rule="evenodd"/>
</svg>
