<svg xmlns="http://www.w3.org/2000/svg" width="171.233" height="42.734" viewBox="0 0 171.233 42.734">
  <g id="Grupo_43" data-name="Grupo 43" transform="translate(-95.222 -371.721)">
    <path id="Caminho_667" data-name="Caminho 667" d="M451.278,407.284c4.18,0,7.882,0,11.584,0,1.242,0,4.128,1.972,4.541,3.059.1.265.135.524-.068.7-1.438,1.246-2.32,3.143-4.763,3.094-6.214-.123-12.433-.091-18.648-.01-1.781.024-2.45-.444-2.5-2.351a9.268,9.268,0,0,1,2.068-6.295c5.036-6.516,9.91-13.156,14.835-19.757.33-.441.98-.875.73-1.453-.274-.634-1.029-.3-1.561-.308-4.55-.026-9.1-.068-13.65.014-1.552.028-2.173-.406-2.127-2.035.161-5.595-.769-4.722,4.762-4.763,6.729-.049,13.459.042,20.187-.047,1.843-.024,2.568.4,2.6,2.412a9.444,9.444,0,0,1-2.092,6.289c-4.856,6.333-9.545,12.791-14.3,19.2C452.435,405.645,452.005,406.266,451.278,407.284Z" transform="translate(-212.596 -3.324)" fill="#545454"/>
    <path id="Caminho_668" data-name="Caminho 668" d="M95.222,395.586c.151-7.473,3.07-13.357,9.834-16.606a18.615,18.615,0,0,1,19.826,1.68c2.065,1.454,2.045,1.693.326,3.457-.89.913-1.663,2.141-2.755,2.6-1.362.576-2.072-1.152-3.175-1.7-4.2-2.1-8.328-2.131-12.186.571-4.214,2.952-5.533,7.289-4.677,12.15,1.6,9.091,11.156,12.639,18.514,6.947,1.035-.8,1.634-.659,2.39.218a18.358,18.358,0,0,0,2.139,2.2c1.421,1.176,1.038,2.045-.265,2.988-6.21,4.494-12.939,5.176-19.8,2.042C98.4,408.93,95.4,402.982,95.222,395.586Z" transform="translate(0 -3.171)" fill="#545454"/>
    <path id="Caminho_669" data-name="Caminho 669" d="M403.692,403.675a8.645,8.645,0,0,1,5.644-3.312c1.329-.145,1.98.171,1.9,1.563-.022.381,0,.764,0,1.147.006,3.351.006,3.351-3.208,4.386-2.712.873-4.195,2.928-4.244,6.138-.066,4.269-.081,8.54-.015,12.807.022,1.459-.39,2.056-1.948,2.013-5.732-.161-4.868.823-4.906-4.817-.046-7.009.031-14.019-.041-21.028-.017-1.646.46-2.419,2.175-2.164a3.88,3.88,0,0,0,.576,0C403.031,400.407,403.031,400.407,403.692,403.675Z" transform="translate(-185.239 -17.569)" fill="#545454"/>
    <path id="Caminho_670" data-name="Caminho 670" d="M194.5,458.387c2.175,0,4.35.027,6.524-.012,1.274-.023,1.946.461,1.847,1.79-.009.127,0,.254,0,.382.074,3.439.074,3.44-3.445,3.441-3.774,0-7.549-.051-11.321.021-1.632.031-2.412-.526-2.239-2.206a11.128,11.128,0,0,0,.008-1.717c-.065-1.217.5-1.727,1.716-1.708C189.9,458.413,192.2,458.388,194.5,458.387Z" transform="translate(-55.652 -53.213)" fill="#878787"/>
    <path id="Caminho_671" data-name="Caminho 671" d="M514.7,444.647a1.915,1.915,0,0,1,1.25.732c1.81,1.806,3.589,3.642,5.424,5.421.9.872.815,1.582-.045,2.417-1.788,1.736-3.562,3.49-5.272,5.3-.935.991-1.7.941-2.534-.054a6.16,6.16,0,0,0-.951-.944c-1.507-1.154-1.293-2.151.022-3.39,2.384-2.246,2.376-1.93-.028-4.387-.583-.6-1.685-1.183-.929-2.2A9.224,9.224,0,0,1,514.7,444.647Z" transform="translate(-255.555 -44.783)" fill="#878787"/>
    <path id="Caminho_672" data-name="Caminho 672" d="M264.34,371.726c-2.021-.073-2.491.578-2.415,2.464.145,3.587.042,7.183.042,10.877-8.7-3.5-14.348-2.591-18.583,2.837-3.537,4.532-3.564,12.68-.058,17.436,4.035,5.473,9.749,6.51,18.552,3.3-.24,1.95.922,2.234,2.459,2.094.572-.052,1.153-.007,1.729-.008,2.691-.006,2.7-.007,2.7-2.608q.005-15.965,0-31.931C268.767,371.769,268.763,371.886,264.34,371.726Zm-10.385,33.056c-4.308-.05-7.372-3.545-7.323-8.354.044-4.374,3.258-7.794,7.306-7.778,4.274.017,7.356,3.422,7.341,8.109C261.263,401.622,258.332,404.833,253.955,404.783Z" transform="translate(-89.344 0)" fill="#545454"/>
    <path id="Caminho_673" data-name="Caminho 673" d="M330.853,416.156c2.434-.033,4.869-.008,7.3-.009q2.21,0,4.42,0c5.3,0,5.281,0,4.615-5.327-.617-4.942-3.1-8.519-7.929-10.035-5-1.571-9.741-.763-13.5,3.041-4.661,4.717-4.95,10.437-2.868,16.352,1.927,5.473,6.44,7.444,11.834,7.9a12.068,12.068,0,0,0,11.784-6.983c.273-.665.827-1.458-.228-1.957-1.338-.633-5.068.154-6.2,1.254-3.346,3.258-9.133,2.173-10.711-2.009C328.72,416.639,329,416.181,330.853,416.156Zm-1.7-6.026c.4-2.256,3.024-4.325,5.637-4.381a5.606,5.606,0,0,1,5.475,3.948c.333,1.264-.014,1.782-1.356,1.722-1.4-.064-2.81-.014-4.215-.016q-2.2,0-4.408,0C329.422,411.4,328.974,411.107,329.148,410.13Z" transform="translate(-139.051 -17.382)" fill="#545454"/>
    <path id="Caminho_674" data-name="Caminho 674" d="M192.273,399.768a9.749,9.749,0,1,0-.035,19.5,9.749,9.749,0,0,0,.035-19.5Zm.045,13.861a4.1,4.1,0,1,1-.16-8.2,4.1,4.1,0,0,1,.16,8.2Z" transform="translate(-53.58 -17.223)" fill="#545454"/>
  </g>
</svg>
