<svg xmlns="http://www.w3.org/2000/svg" width="189.094" height="133.682" viewBox="0 0 189.094 133.682">
  <g id="Grupo_48" data-name="Grupo 48" transform="translate(-150.804 -160.195)">
    <path id="Caminho_691" data-name="Caminho 691" d="M344.57,406.9v-8.85H156.276v8.85h12.789v1.6H156.276v8.61h12.789v1.6H156.276v8.877h12.789v1.6H156.276v9.02h12.789v1.6H156.276v8.639h12.789v1.6H156.276v8.773H344.57v-8.773H331.787v-1.6H344.57V439.8H331.787v-1.6H344.57v-9.02H331.787v-1.6H344.57v-8.877H331.787v-1.6H344.57V408.5H331.787v-1.6ZM216.119,420.2H203.553a3.992,3.992,0,0,0-.784-4.021c-.87-.942-2.4-1.446-4.535-1.446-2.891,0-5.8,1.887-6.283,4.149-.7,3.328,3.088,4.4,6.231,5.277,7.193,1.946,18.085,2.7,15.486,14.952-2.032,9.549-12.418,14.084-22.911,14.084-10.553,0-19.2-3.088-16.774-15.4h12.566c-.964,4.27,1.674,6.595,6.2,6.595,2.9,0,6.923-1.506,7.564-4.522,1.308-6.157-8.273-4.839-17.217-9.173-4.157-2.01-5.529-6.157-4.493-11.055,2.787-10.744,12.838-13.7,22.328-13.7C210.289,405.942,219.19,409.27,216.119,420.2Zm40.368,4.839-1.864,8.793H234.392l-2.042,9.614h21.992l-1.877,8.8H217.912l9.643-45.363H262.11l-1.874,8.8H238.244l-1.99,9.361Zm46.9-4.839H290.823a4,4,0,0,0-.784-4.021c-.87-.942-2.4-1.446-4.537-1.446-2.888,0-5.8,1.887-6.281,4.149-.7,3.328,3.088,4.4,6.231,5.277,7.193,1.946,18.08,2.7,15.484,14.952-2.03,9.549-12.418,14.084-22.909,14.084-10.556,0-19.2-3.088-16.774-15.4h12.566c-.967,4.27,1.674,6.595,6.2,6.595,2.9,0,6.923-1.506,7.561-4.522,1.308-6.157-8.271-4.839-17.214-9.173-4.157-2.01-5.529-6.157-4.493-11.055,2.784-10.744,12.838-13.7,22.323-13.7C297.553,405.942,306.455,409.27,303.389,420.2Zm14.23,32.043H305.053l9.643-45.363h12.566Z" transform="translate(-4.672 -203.065)" fill="#666"/>
    <path id="Caminho_692" data-name="Caminho 692" d="M150.8,162.589h15.543v4.083H155.3v4.346h9.741V175.1H155.3v7.9H150.8Z" transform="translate(0 -2.044)" fill="#666"/>
    <path id="Caminho_693" data-name="Caminho 693" d="M278.36,161.6H282.5l8.751,20.561h-4.7l-1.866-4.578h-8.632l-1.867,4.578h-4.578Zm4.726,12.015-2.712-6.621-2.714,6.621Z" transform="translate(-101.432 -1.198)" fill="#666"/>
    <path id="Caminho_694" data-name="Caminho 694" d="M432.865,170.812v-.058A10.378,10.378,0,0,1,443.511,160.2a10.531,10.531,0,0,1,8.048,3.151l-2.857,3.3a7.54,7.54,0,0,0-5.221-2.306,6.048,6.048,0,0,0-5.921,6.358v.06c0,3.5,2.419,6.416,5.921,6.416a7.367,7.367,0,0,0,5.365-2.393l2.859,2.888a10.439,10.439,0,0,1-8.372,3.646A10.3,10.3,0,0,1,432.865,170.812Z" transform="translate(-240.809)" fill="#666"/>
    <path id="Caminho_695" data-name="Caminho 695" d="M583.984,174.257V162.589h4.491v11.549c0,3.325,1.661,5.047,4.4,5.047s4.4-1.664,4.4-4.9v-11.7h4.491v11.52c0,6.184-3.47,9.217-8.954,9.217S583.984,180.264,583.984,174.257Z" transform="translate(-369.826 -2.044)" fill="#666"/>
    <path id="Caminho_696" data-name="Caminho 696" d="M736.886,162.589h4.491v16.333h10.179v4.083h-14.67Z" transform="translate(-500.365 -2.044)" fill="#666"/>
    <path id="Caminho_697" data-name="Caminho 697" d="M860.292,162.589h7.961c6.416,0,10.849,4.4,10.849,10.149v.06c0,5.745-4.433,10.207-10.849,10.207h-7.961Zm7.961,16.362a5.816,5.816,0,0,0,6.153-6.095V172.8a5.863,5.863,0,0,0-6.153-6.155h-3.47v12.308Z" transform="translate(-605.723 -2.044)" fill="#666"/>
    <path id="Caminho_698" data-name="Caminho 698" d="M1012.943,161.6h4.141l8.751,20.561h-4.7l-1.866-4.578h-8.633l-1.866,4.578H1004.2Zm4.726,12.015-2.712-6.621-2.714,6.621Z" transform="translate(-728.579 -1.198)" fill="#666"/>
    <path id="Caminho_699" data-name="Caminho 699" d="M1173.657,162.589h7.961c6.416,0,10.849,4.4,10.849,10.149v.06c0,5.745-4.433,10.207-10.849,10.207h-7.961Zm7.961,16.362a5.816,5.816,0,0,0,6.153-6.095V172.8a5.863,5.863,0,0,0-6.153-6.155h-3.47v12.308Z" transform="translate(-873.257 -2.044)" fill="#666"/>
    <path id="Caminho_700" data-name="Caminho 700" d="M1329.547,162.589h15.4v4h-10.936v4.141h9.623v4h-9.623v4.286h11.081v4h-15.543Z" transform="translate(-1006.347 -2.044)" fill="#666"/>
    <path id="Caminho_701" data-name="Caminho 701" d="M151.5,929.656h6.611c5.329,0,9.012,3.658,9.012,8.43v.048c0,4.771-3.683,8.478-9.012,8.478H151.5Zm6.611,13.59a4.833,4.833,0,0,0,5.112-5.064v-.048a4.871,4.871,0,0,0-5.112-5.112h-2.883v10.224Z" transform="translate(-0.592 -656.924)" fill="#666"/>
    <path id="Caminho_702" data-name="Caminho 702" d="M281.02,929.656h12.788v3.318h-9.084v3.441h8v3.318h-8v3.562h9.2v3.318H281.02Z" transform="translate(-111.171 -656.924)" fill="#666"/>
    <path id="Caminho_703" data-name="Caminho 703" d="M441.682,929.656H454.47v3.318h-9.084v3.441h7.995v3.318h-7.995v3.562h9.2v3.318H441.682Z" transform="translate(-248.336 -656.924)" fill="#666"/>
    <path id="Caminho_704" data-name="Caminho 704" d="M552.647,929.656h6.612c5.329,0,9.012,3.658,9.012,8.43v.048c0,4.771-3.682,8.478-9.012,8.478h-6.612Zm6.612,13.59a4.833,4.833,0,0,0,5.112-5.064v-.048a4.871,4.871,0,0,0-5.112-5.112h-2.883v10.224Z" transform="translate(-343.072 -656.924)" fill="#666"/>
    <path id="Caminho_705" data-name="Caminho 705" d="M680.338,939.346v-9.69h3.731v9.594c0,2.76,1.381,4.189,3.658,4.189s3.658-1.381,3.658-4.069v-9.714h3.728v9.567c0,5.136-2.881,7.655-7.435,7.655S680.338,944.335,680.338,939.346Z" transform="translate(-452.088 -656.924)" fill="#666"/>
    <path id="Caminho_706" data-name="Caminho 706" d="M802.25,936.491v-.048a8.617,8.617,0,0,1,8.841-8.768,8.75,8.75,0,0,1,6.686,2.615l-2.374,2.738a6.258,6.258,0,0,0-4.337-1.915,5.023,5.023,0,0,0-4.916,5.281v.048a5.035,5.035,0,0,0,4.916,5.329,6.118,6.118,0,0,0,4.458-1.987l2.374,2.4a8.663,8.663,0,0,1-6.952,3.028A8.558,8.558,0,0,1,802.25,936.491Z" transform="translate(-556.17 -655.233)" fill="#666"/>
    <path id="Caminho_707" data-name="Caminho 707" d="M926.945,928.831h3.441l7.266,17.077h-3.9l-1.55-3.8h-7.169l-1.55,3.8h-3.8Zm3.924,9.98-2.253-5.5-2.253,5.5Z" transform="translate(-656.424 -656.22)" fill="#666"/>
    <path id="Caminho_708" data-name="Caminho 708" d="M1060,947.828l1.937-2.859a8.507,8.507,0,0,1-6.611-8.478v-.048a8.616,8.616,0,0,1,8.84-8.768,8.75,8.75,0,0,1,6.686,2.615l-2.374,2.738a6.258,6.258,0,0,0-4.337-1.915,5.023,5.023,0,0,0-4.916,5.281v.048a5.035,5.035,0,0,0,4.916,5.329,6.118,6.118,0,0,0,4.458-1.987l2.374,2.4a8.578,8.578,0,0,1-6.322,3l-1.574,3.924Z" transform="translate(-772.234 -655.233)" fill="#666"/>
    <path id="Caminho_709" data-name="Caminho 709" d="M1180.031,897.3h3.441l7.266,17.077h-3.9l-1.55-3.8h-7.169l-1.55,3.8h-3.8Zm-3.245-1.816c.558-2.036,1.333-3.344,3.028-3.344,1.5,0,2.907.947,3.779.947.751,0,1.065-.413,1.405-1.188l1.961.606c-.558,2.033-1.333,3.342-3.028,3.342-1.5,0-2.907-.944-3.779-.944-.751,0-1.065.411-1.405,1.186Zm7.169,11.8-2.253-5.5-2.253,5.5Z" transform="translate(-872.495 -624.688)" fill="#666"/>
    <path id="Caminho_710" data-name="Caminho 710" d="M1308.414,936.491v-.048a9.015,9.015,0,0,1,18.021-.048v.048a9.015,9.015,0,0,1-18.021.048Zm14.121,0v-.048a5.152,5.152,0,0,0-5.136-5.329,5.07,5.07,0,0,0-5.085,5.281v.048a5.15,5.15,0,0,0,5.134,5.329A5.072,5.072,0,0,0,1322.535,936.491Z" transform="translate(-988.305 -655.233)" fill="#666"/>
  </g>
</svg>
