<svg xmlns="http://www.w3.org/2000/svg" width="160" height="79.148" viewBox="0 0 160 79.148">
  <g id="Grupo_44" data-name="Grupo 44" transform="translate(-146.167 -235.787)">
    <path id="Caminho_676" data-name="Caminho 676" d="M262.135,298.607l-5,15.746a14.284,14.284,0,0,0,5.048.891,14.545,14.545,0,0,0,4.941-.846l-4.892-15.791Z" transform="translate(-57.466 -32.531)" fill="#666" fill-rule="evenodd"/>
    <path id="Caminho_677" data-name="Caminho 677" d="M341.291,288.008h-3.472v12.7h3.472c4.628,0,8.311-1.537,8.311-6.421C349.6,289.543,345.919,288.008,341.291,288.008Z" transform="translate(-99.245 -27.042)" fill="#666" fill-rule="evenodd"/>
    <path id="Caminho_678" data-name="Caminho 678" d="M146.167,235.787v79.148h80.858l79.143-79.148Zm97.5,48.7h-5.088V299.61H215.245l-2.312-7.236a27.3,27.3,0,0,1-16.619-.067l-2.4,7.3h-14.3l1.576-4.223c-.188.166-.378.339-.573.5a21.548,21.548,0,0,1-13.558,4.547l-.819.006a36.38,36.38,0,0,1-17.827-4.743l4.865-9.66c5.268,3.113,8.575,3.811,13.042,3.722,2.312-.044,3.984-.468,5.077-1.6a3.619,3.619,0,0,0,1.029-2.455c.044-2.511-3.526-3.688-7.9-5.037a36.958,36.958,0,0,1-10.7-4.9,12.335,12.335,0,0,1-5.413-11,13.3,13.3,0,0,1,3.77-9.185c3.46-3.576,9.049-5.753,15.75-5.753h.039a42.635,42.635,0,0,1,17.841,4.222l-5.483,9.531c-5.554-2.685-8.352-2.936-11.519-3.107-4.71-.256-7.1,1.434-7.127,3.25-.04,2.215,4.451,4.222,8.7,5.582,6.428,2.044,14.6,4.777,15.84,12.667l11.75-31.31h13.641L225.37,288.1V250.662l15.749,0c15.053,0,22.125,5.365,22.125,17.058C263.244,278.224,255.961,284.486,243.662,284.486Z" transform="translate(0 0)" fill="#666" fill-rule="evenodd"/>
  </g>
</svg>
