<svg xmlns="http://www.w3.org/2000/svg" width="65" height="63.729" viewBox="0 0 65 63.729">
  <g id="ISsblf.tif" transform="translate(-1110.705 -67.456)">
    <g id="Grupo_28" data-name="Grupo 28" transform="translate(1110.705 67.456)">
      <path id="Caminho_628" data-name="Caminho 628" d="M1110.7,124.784V73.858q9.723-1.683,19.446-3.365,8.661-1.5,17.321-3c.715-.124,1.1,0,1.071.844-.044,1.117-.01,2.238-.01,3.358q0,29.087,0,58.174c0,1.439-.027,1.441-1.478,1.181-2.583-.464-5.171-.905-7.757-1.351Q1125,127.241,1110.7,124.784Zm16.647-32.671v1.238q0,7.959,0,15.918c0,1.414,0,1.412,1.45,1.472a15.081,15.081,0,0,1,2.051.113c.945.171,1.178-.18,1.173-1.082-.032-5.6-.016-11.19-.016-16.785V91.724c2-.093,3.8-.15,5.6-.286.337-.025.916-.346.93-.561.087-1.319.044-2.647.044-4.064-.466,0-.785-.016-1.1,0-5.148.306-10.3.628-15.445.915-.933.052-1.368.375-1.24,1.372a8.735,8.735,0,0,1,0,1.946c-.085.873.257,1.114,1.108,1.084C1123.664,92.069,1125.425,92.113,1127.352,92.113Z" transform="translate(-1110.705 -67.456)" fill="#666"/>
      <path id="Caminho_629" data-name="Caminho 629" d="M1175.658,113.062c0,3.9.027,7.8-.02,11.7-.011.9.363,1.287,1.164,1.309a27.081,27.081,0,0,0,3.974-.019c3.374-.41,5.527-2.724,5.536-5.85.018-6.283-.01-12.566.022-18.849,0-.859-.258-1.128-1.113-1.114-2.779.045-5.56.051-8.339,0-.948-.018-1.254.282-1.242,1.235C1175.684,105.334,1175.658,109.2,1175.658,113.062ZM1200.046,94.2a5.629,5.629,0,1,0-11.259,0,5.629,5.629,0,1,0,11.259,0Zm-20.924,2.064a5.755,5.755,0,0,0,4.3-2.01,5.681,5.681,0,0,0,.011-7.426,5.623,5.623,0,0,0-6.959-1.248,1.555,1.555,0,0,0-.827,1.5c.034,2.162.011,4.326.012,6.489,0,1.449.308,1.917,1.678,2.355A14.777,14.777,0,0,0,1179.121,96.262Z" transform="translate(-1135.284 -74.047)" fill="#666"/>
      <path id="Caminho_630" data-name="Caminho 630" d="M1208.334,127.553a16.146,16.146,0,0,1-.888,1.929,5.874,5.874,0,0,1-4.033,2.687c-2.1.38-4.26.464-6.507.686V115.417h11.428Z" transform="translate(-1143.334 -85.61)" fill="#666"/>
      <path id="Caminho_631" data-name="Caminho 631" d="M1175.658,122.422c0-3.864.026-7.727-.019-11.591-.011-.953.294-1.253,1.242-1.235,2.779.053,5.56.047,8.339,0,.855-.014,1.117.255,1.113,1.114-.032,6.283,0,12.566-.022,18.849-.009,3.126-2.162,5.44-5.536,5.85a27.082,27.082,0,0,1-3.974.019c-.8-.022-1.175-.409-1.164-1.309C1175.685,130.222,1175.658,126.322,1175.658,122.422Z" transform="translate(-1135.284 -83.406)" fill="#666"/>
      <path id="Caminho_632" data-name="Caminho 632" d="M1208.055,96.443a5.629,5.629,0,1,1-5.676-5.644A5.531,5.531,0,0,1,1208.055,96.443Z" transform="translate(-1143.293 -76.292)" fill="#666"/>
      <path id="Caminho_633" data-name="Caminho 633" d="M1179.126,96.262a14.772,14.772,0,0,1-1.785-.345c-1.371-.438-1.678-.906-1.678-2.355,0-2.163.022-4.327-.012-6.489a1.555,1.555,0,0,1,.827-1.5,5.623,5.623,0,0,1,6.959,1.248,5.68,5.68,0,0,1-.011,7.426A5.755,5.755,0,0,1,1179.126,96.262Z" transform="translate(-1135.288 -74.047)" fill="#666"/>
    </g>
  </g>
</svg>
