<svg xmlns="http://www.w3.org/2000/svg" width="354.373" height="91.556" viewBox="0 0 354.373 91.556">
  <g id="Grupo_61" data-name="Grupo 61" transform="translate(-152.315 -113.842)">
    <g id="Grupo_53" data-name="Grupo 53" transform="translate(293.4 130.789)">
      <g id="Grupo_49" data-name="Grupo 49" transform="translate(0)">
        <path id="Caminho_711" data-name="Caminho 711" d="M531.659,156.123c14.386,0,20.551,6.885,20.038,14.695-.412,6.885-7.4,8.94-12.846,6.371a6.453,6.453,0,0,0,.1-1.849c0-2.364-1.849-5.241-6.37-5.241-7.4,0-11.1,6.063-11,15.106.1,9.351,4.316,15.311,13.256,15.311a22.55,22.55,0,0,0,12.64-3.8,10.029,10.029,0,0,1,4.623,7.81c.206,5.651-6.782,10.173-19.114,10.173-19.318,0-28.258-11.715-28.671-29.493C503.914,168.763,514.5,156.123,531.659,156.123Z" transform="translate(-504.312 -156.123)" fill="#bebebe"/>
      </g>
      <g id="Grupo_50" data-name="Grupo 50" transform="translate(51.394)">
        <path id="Caminho_712" data-name="Caminho 712" d="M659.668,156.123c18.189,0,27.643,12.742,27.438,29.184-.206,16.647-9.249,29.493-27.335,29.493-18.188,0-27.334-12.846-27.232-29.6C632.641,168.865,641.582,156.123,659.668,156.123ZM670.047,185.2c0-8.118-2.364-15-10.277-15-8.528,0-10.275,6.987-10.275,15,0,8.118,1.849,15.517,10.173,15.517C668.2,200.721,670.047,193.323,670.047,185.2Z" transform="translate(-632.538 -156.123)" fill="#bebebe"/>
      </g>
      <g id="Grupo_51" data-name="Grupo 51" transform="translate(111.813)">
        <path id="Caminho_713" data-name="Caminho 713" d="M783.286,200.824c.205-11.407.514-26.513.412-32.576-.1-2.363-.206-4.213-.206-5.138,0-4.008,0-6.988,6.783-6.988,7.707,0,9.146,4.726,9.146,12.125h.616a14.994,14.994,0,0,1,14.285-12.125c9.248,0,11.92,5.548,11.612,14.284-.308,6.577-3.8,10.379-10.07,9.763-3.391-.206-3.905-1.439-3.905-4.728,0-2.98-.822-5.241-3.8-5.241-3.8,0-6.474,5.857-6.885,9.043a208.146,208.146,0,0,0,.205,26.513c.309,3.7.822,7.912-5.755,7.912h-6.474c-4.11,0-5.035-2.672-5.548-5.241C783.183,206.579,783.286,203.8,783.286,200.824Z" transform="translate(-783.277 -156.123)" fill="#bebebe"/>
      </g>
      <g id="Grupo_52" data-name="Grupo 52" transform="translate(158.544)">
        <path id="Caminho_714" data-name="Caminho 714" d="M900.419,165.988c-.1-3.082-1.849-7.707,1.849-9.043a19.613,19.613,0,0,1,6.063-.822c6.165,0,8.117,4.213,7.809,9.865h.719s2.261-9.865,15.105-9.865c11.3,0,21.579,9.865,21.786,30.211.308,17.572-7.4,28.363-19.525,28.363-10.173,0-15.209-8.118-15.722-12.024h-.822c0,7.707.308,16.339.308,19.833.1,5.344-.719,6.577-6.68,6.577h-5.447c-5.651,0-6.165-2.877-5.96-6.884C900.112,217.985,900.83,178.217,900.419,165.988Zm26.307,34.528c4.419,0,9.043-3.391,9.043-14.9,0-10.379-4.316-16.031-9.455-16.031-4.726,0-8.734,4.213-8.734,13.461V192.5C918.2,193.939,920.971,200.516,926.726,200.516Z" transform="translate(-899.869 -156.123)" fill="#bebebe"/>
      </g>
    </g>
    <g id="Grupo_54" data-name="Grupo 54" transform="translate(152.315 130.957)">
      <path id="Caminho_715" data-name="Caminho 715" d="M166.062,162.622c0,8.51-.748,17.115-.748,26.28,0,5.893,2.432,10.662,8.23,10.662,6.733,0,10.474-6.547,11.877-9.633.094-6.734.281-14.683.187-19.92-.093-2.712-.093-4.863-.187-5.8-.374-3.835-.187-6.734,4.022-6.734h4.77c3.835,0,4.208,3.086,4.208,5.7,0,1.777-.094,4.4-.094,7.388-.187,12.626-.279,28.9-.187,33.2,0,2.9,1.684,6.078-5.517,6.078-5.611,0-6.92-3.366-7.3-6.453a17.331,17.331,0,0,1-.187-3.741h-.654c-.562,2.525-4.77,10.194-15.244,10.194-13.655,0-16.928-10.755-16.928-20.855.094-7.575.748-15.525.56-26.841-.093-2.992-.373-5.611,5.613-5.611C164.567,156.543,166.062,159.255,166.062,162.622Z" transform="translate(-152.315 -156.543)" fill="#666"/>
    </g>
    <g id="Grupo_55" data-name="Grupo 55" transform="translate(210.668 130.957)">
      <path id="Caminho_716" data-name="Caminho 716" d="M331.01,203.772c0-8.511.748-17.115.748-26.281,0-5.892-2.806-10.661-8.51-10.661-7.014,0-10.943,6.921-12.346,9.914-.093,6.546-.186,14.4-.093,19.64,0,2.712,0,4.863.093,5.8.375,3.835.188,6.734-3.927,6.734h-4.863c-3.835,0-4.209-3.086-4.209-5.7,0-1.778.093-4.4.093-7.389.281-12.626.281-28.9.281-33.2,0-2.9-1.778-6.079,5.424-6.079,5.612,0,6.922,3.367,7.295,6.453a17.828,17.828,0,0,1,.187,3.74h.655c.654-2.431,4.863-10.193,15.618-10.193,13.654,0,17.395,10.755,17.3,20.855,0,7.575-.748,15.525-.56,26.841.092,2.993.373,5.611-5.612,5.611S331.01,207.139,331.01,203.772Z" transform="translate(-297.902 -156.543)" fill="#666"/>
    </g>
    <g id="Grupo_56" data-name="Grupo 56" transform="translate(270.137 113.842)">
      <path id="Caminho_717" data-name="Caminho 717" d="M452.829,113.842c3.835,0,6.827.655,7.014,6.173.093,5.424-2.9,6.079-6.547,6.079-4.021,0-6.827-.655-7.014-6.079C446.1,114.5,449.088,113.842,452.829,113.842Zm-2.338,69.488c-3.835,0-4.209-3.086-4.209-5.7,0-1.778.094-4.4.094-7.389.281-12.626.281-25.439.281-32.265,0-2.9-1.4-6.079,5.425-6.079,5.7,0,7.762,1.216,7.575,5.8-.467,11.316-.748,25.345-.561,33.108a43.542,43.542,0,0,0,.187,5.8c.374,3.835.186,6.734-3.928,6.734Z" transform="translate(-446.273 -113.842)" fill="#666"/>
    </g>
    <g id="Grupo_57" data-name="Grupo 57" transform="translate(292.959 132.93)">
      <path id="Caminho_718" data-name="Caminho 718" d="M523.037,213.176c-13.695,0-19.825-10.262-19.825-20.433,0-17.247,14.388-31.278,32.074-31.278,8.585,0,18.609,3.208,18.609,12.25a11.245,11.245,0,0,1-11.317,11.129,8.274,8.274,0,0,1-6.324-2.561,7.952,7.952,0,0,1-1.715-6.4l.052-.443.43-.115a6.612,6.612,0,0,0,5.217-6.379c0-2.814-1.74-5.842-5.561-5.842-8.885,0-12.573,15.04-12.573,23.093,0,9.769,5.229,16.081,13.321,16.081a17.647,17.647,0,0,0,13.695-6.948l.358-.458,1.293.778-.335.562C544.193,206.676,533.695,213.176,523.037,213.176Zm6.822-49.931c-14.384,2.5-25.333,14.778-25.333,29.5,0,11.615,7.266,19.12,18.512,19.12,8.611,0,17.128-4.459,23.187-11.908a18.4,18.4,0,0,1-10.8,3.637c-8.753,0-14.635-6.99-14.635-17.394C520.791,179.244,523.51,167.361,529.859,163.245Zm5.944,13.22a6.5,6.5,0,0,0,1.432,4.946,7.082,7.082,0,0,0,5.343,2.122,9.928,9.928,0,0,0,10-9.816c0-8.016-8.829-10.162-13.931-10.733a7.264,7.264,0,0,1,2.9,5.964A7.956,7.956,0,0,1,535.8,176.465Z" transform="translate(-503.212 -161.465)" fill="#666"/>
    </g>
    <g id="Grupo_58" data-name="Grupo 58" transform="translate(344.206 132.93)">
      <path id="Caminho_719" data-name="Caminho 719" d="M654.4,213.176c-13.737,0-23.331-8.921-23.331-21.695,0-16.552,14.052-30.016,31.325-30.016,13.765,0,23.379,8.921,23.379,21.695C685.773,199.43,671.406,213.176,654.4,213.176Zm4.342-50.187c-14.833,1.728-26.361,13.846-26.361,28.492,0,10.9,7.472,18.817,18.56,20.174-1.592-1.329-2.808-3.986-2.808-9C648.134,196.685,650.082,169.092,658.743,162.989Zm7.225.01c2.741,2.287,2.741,7.2,2.741,9.127,0,7.14-1.983,33.464-10.535,39.488,14.382-1.9,26.286-14.379,26.286-28.455C684.46,172.293,677.02,164.394,665.967,163Zm-3.619.106c-9.189,0-12.9,27.911-12.9,39.549,0,4.051.867,8.881,5,8.881,9.038,0,12.948-26.1,12.948-39.409C667.395,164.04,664.514,163.105,662.348,163.105Z" transform="translate(-631.069 -161.465)" fill="#666"/>
    </g>
    <g id="Grupo_59" data-name="Grupo 59" transform="translate(400.882 132.182)">
      <path id="Caminho_720" data-name="Caminho 720" d="M784.017,212.151c-4.4,0-7.459-1.1-9.348-3.35-2.152-2.57-2.716-6.529-1.723-12.1l5.236-29.453c.172-1,.056-1.718-.326-2.032-.466-.383-1.448-.317-2.765.189l-.4.152-1.1-1.093.831-.4c3.085-1.5,9.855-3.712,14.594-3.712,3.14,0,5.145.685,6.316,2.158,1.2,1.5,1.418,3.784.681,6.969l-1.973,8.331c6.171-15.756,12.826-18.206,18.725-18.206,8.527,0,12.344,5.778,12.344,11.5,0,6.392-4.785,13.186-13.654,13.186a8.7,8.7,0,0,1-6.5-2.623,7.958,7.958,0,0,1-1.82-6.327l.059-.591h.594c3.078,0,6.262-2.6,6.262-6.964,0-.426-.085-4.158-3.037-4.158-4.964,0-11.765,12.228-15.161,27.258-1.22,5.433-4.018,17.887-1.138,19.07l.912.374-1.023,1.023-.192.04A25.845,25.845,0,0,1,784.017,212.151Zm-5.774-48.237a2.269,2.269,0,0,1,.447.285c.54.443,1.114,1.37.786,3.273l-5.238,29.457c-.908,5.095-.423,8.805,1.438,11.028,1.624,1.938,4.352,2.881,8.341,2.881a22.07,22.07,0,0,0,5.134-.529c-2.063-2.826-.545-10.9,1.3-19.138l-.848-.281,5.14-21.717c.64-2.766.5-4.682-.431-5.852-.889-1.117-2.619-1.661-5.287-1.661A35.955,35.955,0,0,0,778.244,163.914Zm26.163,12.117a6.39,6.39,0,0,0,1.527,4.752,7.393,7.393,0,0,0,5.526,2.19A11.848,11.848,0,0,0,823.8,171.1c0-5.072-3.41-10.19-11.031-10.19a12.9,12.9,0,0,0-6.175,1.419c.142-.014.283-.021.424-.021,3,0,4.35,2.749,4.35,5.472A7.9,7.9,0,0,1,804.407,176.031Z" transform="translate(-772.472 -159.598)" fill="#666"/>
    </g>
    <g id="Grupo_60" data-name="Grupo 60" transform="translate(448.95 132.182)">
      <path id="Caminho_721" data-name="Caminho 721" d="M905.205,232.815c-4.943,0-8.365-1.2-10.46-3.676-2.188-2.582-2.85-6.573-1.969-11.861l8.322-50.024c.173-1,.056-1.726-.325-2.039-.471-.385-1.452-.317-2.766.189l-.4.153-1.09-1.1.827-.4c3.084-1.5,9.855-3.712,14.594-3.712,3.118,0,5.114.679,6.282,2.138,1.2,1.5,1.434,3.782.717,6.984l-2.2,10.1c5.013-13.727,11.305-19.975,19.8-19.975,8.521,0,13.607,6.152,13.607,16.459a39.593,39.593,0,0,1-8.143,23.326c-5.933,7.691-14.167,11.926-23.184,11.926a19.634,19.634,0,0,1-6.556-.872l-.727-.231.525-1.065.469-.08c2.451.073,5.012-1.065,7.436-3.41,7.593-7.348,12.129-23.742,12.129-35.345,0-5.5-1.1-6.262-2.288-6.262-4.742,0-12.367,14.736-15.111,29.2l-3.412,18.279c-2.86,15.285-1.725,19.012-.269,19.447l1.054.315-1.124,1.123-.22.029A43.116,43.116,0,0,1,905.205,232.815Zm-4.044-68.9a2.249,2.249,0,0,1,.445.284c.54.443,1.114,1.37.787,3.274l-8.322,50.021c-.814,4.89-.251,8.523,1.675,10.8,1.831,2.162,4.925,3.212,9.458,3.212a40.458,40.458,0,0,0,4.134-.226c-2.14-2.951-.923-11.61.645-19.995L913.4,193c.108-.573.228-1.158.359-1.752l-.866-.217,4.765-21.847c.625-2.791.474-4.713-.459-5.88-.887-1.107-2.606-1.645-5.257-1.645A35.957,35.957,0,0,0,901.161,163.914Zm14.654,45.95a27.869,27.869,0,0,0,2.995.132c12.583,0,30.013-11.794,30.013-33.939,0-4.554-1.2-15.146-12.294-15.146a13.48,13.48,0,0,0-6.894,1.823c.054,0,.108,0,.161,0,3.165,0,3.6,3.641,3.6,7.576,0,11.877-4.686,28.7-12.529,36.289A13.783,13.783,0,0,1,915.815,209.864Z" transform="translate(-892.399 -159.598)" fill="#666"/>
    </g>
  </g>
</svg>
