<svg xmlns="http://www.w3.org/2000/svg" width="132.059" height="48.755" viewBox="0 0 132.059 48.755">
  <g id="Grupo_26" data-name="Grupo 26" transform="translate(-1005.285 -202.833)">
    <g id="Grupo_27" data-name="Grupo 27" transform="translate(1050.072 218.785)">
      <g id="Grupo_26-2" data-name="Grupo 26" transform="translate(0)">
        <path id="Caminho_612" data-name="Caminho 612" d="M1196.325,258.074c-.226.317-.632.626-.649.953-.072,1.43-.031,2.865-.03,4.3,0,1.483-.04,2.967.031,4.446.016.32.434.62.666.93.224-.316.635-.628.641-.947q.075-4.373,0-8.747C1196.978,258.692,1196.554,258.385,1196.325,258.074Z" transform="translate(-1165.987 -252.425)" fill="#666"/>
        <path id="Caminho_613" data-name="Caminho 613" d="M1195.175,245.739c-.076.262.444.7.859,1.282.434-.555.921-.9.91-1.235-.012-.355-.493-.694-.769-1.041C1195.82,245.07,1195.289,245.344,1195.175,245.739Z" transform="translate(-1165.703 -244.308)" fill="#666"/>
        <path id="Caminho_614" data-name="Caminho 614" d="M1206.936,265.536a5.128,5.128,0,0,1,.139-5.489c1.4-1.938,3.272-1.989,5.437-1.17.337-1.344-.427-1.55-1.255-1.657-4.378-.564-7.142,2.539-6.38,7.152a4.979,4.979,0,0,0,6.928,3.749c.379-.172.6-.688.9-1.044l-.306-.311C1210.318,267.433,1208.341,267.635,1206.936,265.536Z" transform="translate(-1171.539 -251.864)" fill="#666"/>
        <path id="Caminho_615" data-name="Caminho 615" d="M1129,245.926A7.094,7.094,0,0,0,1120.54,250c-1.609,3.956-.441,8.7,2.663,10.508a7.157,7.157,0,0,0,7.372.089c2.757-1.5,3.447-4.167,3.563-6.578C1134.173,249.628,1132.186,246.689,1129,245.926Zm3.029,10.746a5.176,5.176,0,0,1-5.632,3.436,5.491,5.491,0,0,1-4.772-4.8,10.892,10.892,0,0,1-.118-1.38c.027-3.442,1.4-5.668,3.8-6.544a5.052,5.052,0,0,1,6.56,2.758A8.481,8.481,0,0,1,1132.028,256.673Z" transform="translate(-1119.819 -244.888)" fill="#666"/>
        <path id="Caminho_616" data-name="Caminho 616" d="M1171.7,243.633c-.958.282-2.167.424-2.748,1.089a5.489,5.489,0,0,0-.934,2.987c-.1,1.047-.382,1.576-1.489,1.5-.642-.043-1.293.036-1.931-.03a1.574,1.574,0,0,1-1.03-.411c-.893-1.237.151-3.614,1.642-3.946a4.649,4.649,0,0,0,1.12-.6c-.48-.21-.974-.625-1.438-.594-1.763.12-2.9,1.509-2.958,3.477-.033,1.03.22,2.212-1.443,2.176-.141,0-.44.443-.412.479.185.233.437.572.673.577,1.054.021,1.181.655,1.175,1.491-.016,2.33-.031,4.661.031,6.989.01.37.423.728.649,1.092.262-.374.732-.738.75-1.123.082-1.781.038-3.568.039-5.353,0-3.32.064-3.355,3.434-3.069.819.07,1.15.408,1.14,1.2-.017,1.19,0,2.379,0,3.569h.011c0,1.19-.059,2.384.032,3.567.032.42.429.811.658,1.216.246-.4.69-.789.7-1.195.073-2.129.087-4.264.021-6.393-.04-1.292.189-2.146,1.756-2,.266.025.571-.355.858-.549-.3-.187-.6-.554-.883-.533-1.73.135-1.833-.905-1.679-2.18.16-1.334.723-2.24,2.236-2.279.234-.006.46-.358.689-.551C1172.143,244.027,1171.851,243.589,1171.7,243.633Z" transform="translate(-1144.336 -243.627)" fill="#666"/>
        <path id="Caminho_617" data-name="Caminho 617" d="M1326,252.689c-2.8-.478-2.8-.478-2.586-3.4a1.26,1.26,0,0,0,.006-.149c-.051-1.041.5-1.4,1.473-1.366a28.788,28.788,0,0,0,3.123-.031c.349-.027.674-.375,1.01-.576-.3-.229-.6-.644-.913-.657-1.634-.067-3.274-.07-4.909,0-.345.014-.946.386-.969.635-.2,2.191-.295,4.391-.429,6.73a30.5,30.5,0,0,1,3.178.018c2.2.247,3.457,1.68,3.3,3.637a3.539,3.539,0,0,1-3.957,3.178,19.859,19.859,0,0,1-2.606-.519l-.444.352c.38.4.735,1.118,1.143,1.15a13.649,13.649,0,0,0,4.242-.111c2.229-.547,3.275-2.512,3.087-5.119C1329.6,254.4,1328.288,253.08,1326,252.689Z" transform="translate(-1242.5 -245.35)" fill="#666"/>
        <path id="Caminho_618" data-name="Caminho 618" d="M1270.725,252.993c2.1-1.987,2.676-3.761,1.651-5.5-.925-1.57-3.26-2.2-5.627-1.487-.751.226-1.593.438-1.172,1.671a10.59,10.59,0,0,1,1.544-.571c1.3-.264,2.75-.419,3.529.815a4.287,4.287,0,0,1,.409,2.907c-.274,1.3-1.5,1.687-2.754,1.868a10.427,10.427,0,0,0-1.875.634c.66.232,1.318.47,1.98.695a11.284,11.284,0,0,1,2.343.816,2.957,2.957,0,0,1-1.294,5.232,36.075,36.075,0,0,1-4.624-.275c-.286.661.092,1.3.957,1.355a16.071,16.071,0,0,0,4.807-.119,3.8,3.8,0,0,0,2.6-4.959C1272.776,254.947,1271.637,254.088,1270.725,252.993Z" transform="translate(-1208.072 -244.898)" fill="#666"/>
      </g>
      <path id="Caminho_619" data-name="Caminho 619" d="M1167.967,255.135c0-1.19-.013-2.379,0-3.569.011-.791-.32-1.13-1.14-1.2-3.37-.287-3.433-.251-3.434,3.069,0,1.785.043,3.572-.039,5.353-.018.385-.488.749-.75,1.123-.226-.364-.639-.723-.649-1.092-.062-2.329-.047-4.659-.031-6.989.005-.836-.122-1.47-1.175-1.491-.236,0-.488-.344-.673-.577-.028-.036.271-.482.412-.479,1.663.036,1.409-1.146,1.443-2.176.063-1.968,1.2-3.357,2.958-3.477.464-.031.958.384,1.438.594a4.649,4.649,0,0,1-1.12.6c-1.491.332-2.535,2.709-1.642,3.946a1.574,1.574,0,0,0,1.03.411c.638.066,1.289-.013,1.931.03,1.107.075,1.392-.454,1.489-1.5a5.489,5.489,0,0,1,.934-2.987c.581-.665,1.79-.807,2.748-1.089.149-.044.441.395.666.61-.229.192-.454.544-.689.551-1.513.039-2.076.945-2.236,2.279-.153,1.275-.051,2.315,1.679,2.18.279-.021.588.345.883.533-.287.193-.592.574-.858.549-1.567-.151-1.8.7-1.756,2,.066,2.13.052,4.264-.021,6.393-.014.406-.458.8-.7,1.195-.23-.4-.626-.8-.658-1.216-.091-1.183-.032-2.377-.032-3.567Z" transform="translate(-1144.336 -243.627)" fill="#666"/>
      <path id="Caminho_620" data-name="Caminho 620" d="M1321.722,260.184a19.859,19.859,0,0,0,2.606.519,3.539,3.539,0,0,0,3.957-3.178c.155-1.957-1.1-3.39-3.3-3.637a30.5,30.5,0,0,0-3.178-.018c.134-2.338.23-4.539.429-6.73.023-.249.624-.621.969-.635,1.635-.067,3.275-.064,4.909,0,.313.013.609.427.913.657-.336.2-.66.549-1.01.576a28.788,28.788,0,0,1-3.123.031c-.973-.031-1.524.326-1.473,1.366a1.271,1.271,0,0,1-.006.149c-.21,2.925-.21,2.925,2.586,3.4,2.288.391,3.6,1.712,3.751,3.767.188,2.606-.859,4.572-3.087,5.119a13.649,13.649,0,0,1-4.242.111c-.408-.032-.763-.748-1.143-1.15Z" transform="translate(-1242.5 -245.35)" fill="#666"/>
      <path id="Caminho_621" data-name="Caminho 621" d="M1270.725,252.993c.912,1.095,2.051,1.954,2.475,3.082a3.8,3.8,0,0,1-2.6,4.959,16.071,16.071,0,0,1-4.807.119c-.865-.052-1.243-.694-.957-1.355a36.075,36.075,0,0,0,4.624.275,2.957,2.957,0,0,0,1.294-5.232,11.284,11.284,0,0,0-2.343-.816c-.662-.225-1.32-.463-1.98-.695a10.427,10.427,0,0,1,1.875-.634c1.257-.181,2.48-.564,2.754-1.868a4.285,4.285,0,0,0-.409-2.907c-.779-1.234-2.233-1.078-3.529-.815a10.59,10.59,0,0,0-1.544.571c-.421-1.233.421-1.445,1.172-1.671,2.367-.711,4.7-.083,5.627,1.487C1273.4,249.233,1272.822,251.007,1270.725,252.993Z" transform="translate(-1208.072 -244.898)" fill="#666"/>
      <path id="Caminho_622" data-name="Caminho 622" d="M1212.511,258.877c-2.165-.818-4.038-.767-5.437,1.17a5.129,5.129,0,0,0-.138,5.489c1.406,2.1,3.382,1.9,5.461,1.23l.306.311c-.3.356-.519.872-.9,1.044a4.979,4.979,0,0,1-6.928-3.749c-.762-4.613,2-7.716,6.38-7.152C1212.085,257.327,1212.849,257.533,1212.511,258.877Z" transform="translate(-1171.539 -251.864)" fill="#666"/>
      <path id="Caminho_623" data-name="Caminho 623" d="M1195.645,263.326c0-1.434-.041-2.869.031-4.3.016-.328.422-.636.649-.953.23.311.653.618.659.933q.077,4.373,0,8.747c-.005.319-.417.632-.641.947-.232-.309-.65-.61-.666-.93C1195.606,266.293,1195.646,264.809,1195.645,263.326Z" transform="translate(-1165.987 -252.425)" fill="#666"/>
      <path id="Caminho_624" data-name="Caminho 624" d="M1196.033,247.021c-.415-.585-.935-1.02-.859-1.282.114-.395.646-.669,1-.994.276.346.757.685.769,1.041C1196.954,246.118,1196.468,246.466,1196.033,247.021Z" transform="translate(-1165.703 -244.308)" fill="#666"/>
      <path id="Caminho_625" data-name="Caminho 625" d="M1232.106,263.266c1.683.037,3.368-.021,5.051.012.876.017,1.227-.3,1.23-1.211a4.478,4.478,0,0,0-2.9-4.553,4.429,4.429,0,0,0-5.446,2.2,9.388,9.388,0,0,0-.774,4.562c.424,3.782,3.933,5.55,7.4,3.919.43-.2.715-.713,1.067-1.081l-.344-.328a20.3,20.3,0,0,1-2.713.619,3.409,3.409,0,0,1-3.782-2.444C1230.562,263.859,1230.812,263.238,1232.106,263.266Zm-.439-3.262a2.643,2.643,0,0,1,3-1.452,4.233,4.233,0,0,1,2.162,1.749c.7,1.169.272,1.668-1.128,1.706l-1.638.008a10.045,10.045,0,0,1-1.338-.013,15.446,15.446,0,0,1-1.521-.352A5.9,5.9,0,0,1,1231.667,260Z" transform="translate(-1186.445 -251.95)" fill="#666"/>
      <path id="Caminho_626" data-name="Caminho 626" d="M1300.332,252.963a4.161,4.161,0,0,0-5.633-.5c-.286.23-.581.45-.92.712-.9-4,1.9-6.668,6.394-6.252l.35-.42c-.41-.3-.783-.763-1.236-.861a5.36,5.36,0,0,0-6.155,3.049,12.3,12.3,0,0,0-.741,9.112,4.274,4.274,0,0,0,3.82,3.452,4.445,4.445,0,0,0,4.571-2.382A5.826,5.826,0,0,0,1300.332,252.963Zm-3.4,7.166a3.564,3.564,0,0,1-3.172-3.809,3.2,3.2,0,0,1,3.168-3.392c1.855-.011,3.135,1.454,3.132,3.585C1300.054,258.594,1298.7,260.159,1296.927,260.129Z" transform="translate(-1224.578 -244.768)" fill="#666"/>
    </g>
    <path id="Caminho_627" data-name="Caminho 627" d="M1046.043,208.167a1.014,1.014,0,0,0-.838-1.164c-4.307-1.344-8.6-2.744-12.9-4.094a1.978,1.978,0,0,0-1.187.032c-8.367,3.064-16.722,6.158-25.089,9.222a.97.97,0,0,0-.744,1.094q.03,14,.014,28v.918c.335-.136.587-.231.833-.338,2.469-1.077,4.929-2.178,7.413-3.219a1.172,1.172,0,0,0,.826-1.287c-.025-7.281-.012-14.562-.021-21.843,0-.514.068-.853.674-.992,5.274-1.2,10.541-2.44,15.811-3.662.935-.216.944-.2.945.792q0,16.521,0,33.042c0,.878-.032.892-.908.785q-4.217-.517-8.434-1.021c-5.392-.648-10.784-1.294-16.3-1.956.125.107.153.148.191.162q12.35,4.431,24.708,8.839a2.407,2.407,0,0,0,1.394.022c4.33-1.27,8.645-2.589,12.971-3.87a.766.766,0,0,0,.629-.887c-.018-1.7,0-3.41,0-5.115Q1046.035,224.9,1046.043,208.167Z" transform="translate(0)" fill="#666"/>
  </g>
</svg>
