<svg id="Grupo_46" data-name="Grupo 46" xmlns="http://www.w3.org/2000/svg" width="101.272" height="101.272" viewBox="0 0 101.272 101.272">
  <g id="Grupo_45" data-name="Grupo 45">
    <path id="Caminho_679" data-name="Caminho 679" d="M22.587,33.664a3.4,3.4,0,0,0-3.193,3.452,2.2,2.2,0,0,0,2.285,2.323,3.4,3.4,0,0,0,3.193-3.452A2.2,2.2,0,0,0,22.587,33.664Z" transform="translate(16.197 28.115)" fill="#545454"/>
    <path id="Caminho_680" data-name="Caminho 680" d="M28.007,33.729H26.441L25.623,36.8H27.13c1.646,0,2.584-.657,2.584-1.806a1.1,1.1,0,0,0-.319-.828A1.914,1.914,0,0,0,28.007,33.729Z" transform="translate(21.4 28.17)" fill="#545454"/>
    <path id="Caminho_681" data-name="Caminho 681" d="M29.1,37.376h3.183l-.629-3.582Z" transform="translate(24.305 28.224)" fill="#545454"/>
    <path id="Caminho_682" data-name="Caminho 682" d="M15.9,37.376h3.183l-.629-3.582Z" transform="translate(13.283 28.224)" fill="#545454"/>
    <path id="Caminho_683" data-name="Caminho 683" d="M42.692,33.664A3.4,3.4,0,0,0,39.5,37.116a2.2,2.2,0,0,0,2.285,2.323,3.4,3.4,0,0,0,3.193-3.452A2.2,2.2,0,0,0,42.692,33.664Z" transform="translate(32.989 28.115)" fill="#545454"/>
    <path id="Caminho_684" data-name="Caminho 684" d="M72.047,0H29.225A29.226,29.226,0,0,0,0,29.225V72.047a29.226,29.226,0,0,0,29.225,29.225H72.047a29.226,29.226,0,0,0,29.225-29.225V29.225A29.226,29.226,0,0,0,72.047,0ZM23.672,68.254a3.353,3.353,0,0,1-2.854-1.327l.6-.468a2.744,2.744,0,0,0,2.3,1.086c1.008,0,1.765-.549,1.765-1.307,0-.54-.358-.859-1.437-1.277-1.286-.508-1.914-.958-1.914-1.866,0-1.156,1.066-2.024,2.573-2.024a3.2,3.2,0,0,1,2.476,1.057l-.58.519a2.533,2.533,0,0,0-1.965-.868c-1.048,0-1.676.587-1.676,1.226,0,.569.448.859,1.547,1.288,1.2.459,1.806.947,1.806,1.846C26.316,67.366,25.158,68.254,23.672,68.254Zm9.148-.1L32.5,66.309H28.689l-1.318,1.846H26.5l5.069-7.034h.758l1.3,7.034Zm.088-7.7c-.448,0-.947-.389-1.275-.389-.261,0-.4.141-.609.481l-.479-.15c.319-.688.629-1.008,1.088-1.008s.947.389,1.275.389c.261,0,.4-.139.6-.47l.488.15C33.677,60.142,33.369,60.451,32.908,60.451Zm4.918,7.833a2.959,2.959,0,0,1-3.063-3.032,4.205,4.205,0,0,1,4.07-4.2A2.957,2.957,0,0,1,41.9,64.073,4.207,4.207,0,0,1,37.827,68.283Zm9.007-2.613-.668,2.485h-.789l1.876-6.985h2.186a2.75,2.75,0,0,1,1.995.648,1.8,1.8,0,0,1,.5,1.3c0,1.626-1.387,2.555-3.443,2.555Zm10.205,2.485-.321-1.846h-3.81l-1.318,1.846h-.868l5.069-7.034h.758l1.3,7.034Zm6.713-.758a2.982,2.982,0,0,1-2.177.868c-1.666,0-2.544-.929-2.544-2.235a4,4,0,0,1,.149-1.088l1-3.771h.8l-1.057,3.98a2.948,2.948,0,0,0-.1.789c0,.908.589,1.6,1.826,1.6A2.183,2.183,0,0,0,63.2,66.9a3.8,3.8,0,0,0,.886-1.707l1.088-4.021h.789L64.85,65.33A4.55,4.55,0,0,1,63.752,67.4Zm6.842.758H65.876l1.876-6.985h.787l-1.676,6.256h3.931Zm4.129.128a2.959,2.959,0,0,1-3.063-3.032,4.205,4.205,0,0,1,4.07-4.2,2.957,2.957,0,0,1,3.063,3.023A4.207,4.207,0,0,1,74.723,68.283Z" fill="#545454"/>
  </g>
  <path id="Caminho_685" data-name="Caminho 685" d="M27.522,25.108c1.534-5.467-2.916-7.132-7.6-7.132-4.744,0-9.772,1.475-11.165,6.849-.518,2.45.169,4.524,2.248,5.529,4.47,2.167,9.262,1.509,8.609,4.586C19.3,36.449,17.286,37.2,15.834,37.2c-2.263,0-3.582-1.162-3.1-3.3H6.451c-1.215,6.159,3.111,7.7,8.389,7.7,5.247,0,10.442-2.268,11.457-7.043,1.3-6.128-4.146-6.5-7.744-7.478-1.569-.439-3.467-.973-3.114-2.639a3.226,3.226,0,0,1,3.142-2.074,3,3,0,0,1,2.266.723,2,2,0,0,1,.393,2.011ZM45.7,41.13l.938-4.4h-11l1.022-4.806H46.779l.932-4.4H37.594l.995-4.682h11l.938-4.4H33.241L28.42,41.13ZM71.165,25.108c1.536-5.467-2.916-7.132-7.6-7.132-4.744,0-9.77,1.475-11.163,6.849-.518,2.45.169,4.524,2.246,5.529,4.472,2.167,9.264,1.509,8.609,4.586-.319,1.509-2.329,2.263-3.78,2.263-2.261,0-3.58-1.162-3.1-3.3H50.093c-1.215,6.159,3.111,7.7,8.389,7.7,5.247,0,10.442-2.268,11.459-7.043,1.3-6.128-4.147-6.5-7.746-7.478-1.571-.439-3.467-.973-3.114-2.639a3.226,3.226,0,0,1,3.142-2.074,3,3,0,0,1,2.266.723,2,2,0,0,1,.393,2.011ZM78.283,41.13,83.1,18.448H76.821L72,41.13Z" transform="translate(5.215 15.013)" fill="#c1c1c1" fill-rule="evenodd"/>
</svg>
